<?xml version="1.0" encoding="UTF-8" standalone="no"?>
<!-- Created with Inkscape (http://www.inkscape.org/) -->

<svg
     xmlns:dc="http://purl.org/dc/elements/1.1/"
     xmlns:cc="http://creativecommons.org/ns#"
     xmlns:rdf="http://www.w3.org/1999/02/22-rdf-syntax-ns#"
     xmlns:svg="http://www.w3.org/2000/svg"
     xmlns="http://www.w3.org/2000/svg"
     xmlns:sodipodi="http://sodipodi.sourceforge.net/DTD/sodipodi-0.dtd"
     xmlns:inkscape="http://www.inkscape.org/namespaces/inkscape"
     version="1.1"
     viewBox="0 0 618.09998 383.74798"
     id="svg5689"
     inkscape:version="0.48.5 r10040"
     width="100%"
     height="100%"
     sodipodi:docname="landscape-bild-remix.svg">
    <sodipodi:namedview
         pagecolor="#ffffff"
         bordercolor="#666666"
         borderopacity="1"
         objecttolerance="10"
         gridtolerance="10"
         guidetolerance="10"
         inkscape:pageopacity="0"
         inkscape:pageshadow="2"
         inkscape:window-width="640"
         inkscape:window-height="480"
         id="namedview16"
         showgrid="false"
         fit-margin-top="0"
         fit-margin-left="0"
         fit-margin-right="0"
         fit-margin-bottom="0"
         inkscape:zoom="0.76524834"
         inkscape:cx="36.589429"
         inkscape:cy="196.85179"
         inkscape:current-layer="svg5689" />
    <defs
         id="defs3" />
    <metadata
         id="metadata4">
        <rdf:RDF>
            <cc:Work
                 rdf:about="">
                <dc:format>image/svg+xml</dc:format>
                <dc:type
                     rdf:resource="http://purl.org/dc/dcmitype/StillImage" />
                <dc:title></dc:title>
            </cc:Work>
        </rdf:RDF>
    </metadata>
    <rect
         width="617.90002"
         height="333.28265"
         x="0"
         y="-5.8852866e-06"
         id="rect5359"
         style="color:#000000;fill:#9be2e5;fill-opacity:1;fill-rule:nonzero;stroke:none;marker:none;visibility:visible;display:inline;overflow:visible;enable-background:accumulate" />
    <g
         id="g4092"
         transform="translate(436.45964,45.736783)">
        <path
             inkscape:connector-curvature="0"
             id="use4032"
             d="M 102.15625,-75.96875 C 37.122188,-76.945996 -19.121213,-13.72784 -12.06771,50.714823 -6.1339409,110.79147 54.220884,159.42289 114.40013,151.38957 164.62736,146.08864 209.89472,104.75492 215.09375,53.75 222.13062,0.70398122 187.78339,-54.628557 136.59375,-70.71875 125.56926,-74.424679 113.84306,-76.32332 102.15625,-75.96875 z"
             style="fill:#fffcee;fill-opacity:0.11742422;stroke:none" />
        <path
             inkscape:connector-curvature="0"
             id="use4004"
             d="M 98.15625,-19.5625 C 61.296943,-18.31367 34.182189,24.550836 47.5,58.65625 56.336925,84.138542 85.296074,99.071996 111.5625,94.53125 133.59541,91.427935 153.42925,74.692115 157.88276,52.463492 165.29949,21.742622 144.41996,-13.740737 112.60793,-18.761549 107.85776,-19.565186 102.97833,-19.662745 98.15625,-19.5625 z"
             style="fill:#fff5cd;fill-opacity:0.16666667;stroke:none" />
        <path
             inkscape:connector-curvature="0"
             id="use3778"
             d="M 100.83253,16.701501 C 85.960984,16.646648 75.354661,34.842885 82.703179,47.883981 88.589957,60.215013 107.11716,63.537256 116.76296,53.56841 127.00557,44.125689 124.5087,24.927098 111.73353,19.110951 108.3788,17.327463 104.5791,16.57419 100.83253,16.701501 z"
             style="fill:#ffe580;fill-opacity:1;stroke:none" />
        <path
             inkscape:connector-curvature="0"
             id="path5357"
             d="M 101.01967,21.192901 C 86.922241,20.835568 79.124985,41.425697 90.025095,50.387001 98.218499,58.374866 114.81485,55.358629 117.88581,43.649902 121.4863,32.919555 112.96709,19.985271 101.01967,21.192901 z"
             style="fill:#ffee81;fill-opacity:1;stroke:none" />
    </g>
    <g
         id="g4150">
        <path
             style="color:#000000;fill:#80a4a4;fill-opacity:1;fill-rule:nonzero;stroke:none;marker:none;visibility:visible;display:inline;overflow:visible;enable-background:accumulate"
             id="path5345"
             d="M 235.6,272.18266 C 235.6,272.18266 385.1,149.08266 397.1,140.58266 409.1,132.12266 407.1,127.82266 433.1,149.88266 458.1,171.98266 611.1,309.58266 611.1,309.58266 z"
             inkscape:connector-curvature="0" />
        <path
             inkscape:connector-curvature="0"
             style="color:#000000;fill:#628989;fill-opacity:1;fill-rule:nonzero;stroke:none;marker:none;visibility:visible;display:inline;overflow:visible;enable-background:accumulate"
             id="path5347"
             d="M 409.1,133.72266 C 405.1,134.02266 402.1,136.88266 397.1,140.58266 385.1,149.08266 235.6,272.18266 235.6,272.18266 L 409.1,289.48266 409.1,133.72266 C 409.1,133.72266 409.1,133.72266 409.1,133.72266 z" />
        <path
             inkscape:connector-curvature="0"
             style="color:#000000;fill:#e7e7e7;fill-opacity:1;fill-rule:nonzero;stroke:none;stroke-width:1;marker:none;visibility:visible;display:inline;overflow:visible;enable-background:accumulate"
             id="path5349"
             d="M 409.1,133.72266 C 405.1,134.02266 402.1,136.88266 397.1,140.58266 395.1,142.28266 386.1,148.98266 375.1,158.18266 375.1,161.58266 375.1,164.88266 376.1,166.48266 379.1,170.58266 393.1,162.68266 393.1,162.68266 393.1,162.68266 395.1,173.28266 409.1,173.28266 420.1,173.28266 421.1,159.68266 421.1,159.68266 421.1,159.68266 440.1,171.98266 446.1,165.58266 447.1,164.78266 447.1,163.68266 447.1,162.28266 440.1,156.88266 436.1,152.58266 433.1,149.88266 419.1,137.48266 413.1,133.42266 409.1,133.72266 z" />
        <path
             inkscape:connector-curvature="0"
             style="color:#000000;fill:#e7e7e7;fill-opacity:1;fill-rule:nonzero;stroke:none;stroke-width:1;marker:none;visibility:visible;display:inline;overflow:visible;enable-background:accumulate"
             id="path5351"
             d="M 409.1,133.72266 C 405.1,134.02266 402.1,136.88266 397.1,140.58266 395.1,142.28266 386.1,148.98266 375.1,158.18266 375.1,161.58266 375.1,164.88266 376.1,166.48266 379.1,170.58266 393.1,162.68266 393.1,162.68266 393.1,162.68266 395.1,173.28266 409.1,173.28266 409.1,173.28266 410.1,173.28266 410.1,173.28266 L 410.1,133.72266 C 409.1,133.72266 409.1,133.72266 409.1,133.72266 z" />
        <path
             inkscape:connector-curvature="0"
             style="color:#000000;fill:#87a9a9;fill-opacity:1;fill-rule:nonzero;stroke:none;stroke-width:1;marker:none;visibility:visible;display:inline;overflow:visible;enable-background:accumulate"
             id="path4811"
             d="M 224.2,102.95266 C 220,103.25266 216.7,106.81266 210.3,111.39266 196.3,121.40266 35.700001,257.68266 21.500001,269.38266 L 21.500001,273.88266 473.1,319.48266 C 473.1,319.48266 286.1,150.08266 254.2,122.89266 236.6,107.59266 229.6,102.57266 224.2,102.95266 z" />
        <path
             inkscape:connector-curvature="0"
             style="fill:#628989;fill-opacity:1;stroke:none"
             id="path5328"
             d="M 224.1,102.95266 C 219.9,103.25266 216.7,106.81266 210.3,111.39266 196.9,121.00266 45.300001,244.98266 20.000001,265.68266 L 20.000001,274.28266 224.9,294.68266 224.9,102.95266 224.1,102.95266 z" />
        <path
             inkscape:connector-curvature="0"
             style="color:#000000;fill:#f2f2f2;fill-opacity:1;fill-rule:nonzero;stroke:none;marker:none;visibility:visible;display:inline;overflow:visible;enable-background:accumulate"
             id="path5335"
             d="M 224.1,102.95266 C 219.9,103.25266 216.7,106.81266 210.3,111.39266 207.3,113.52266 197,121.72266 182.9,133.11266 182.5,137.18266 182.6,141.28266 184.2,143.28266 188.1,148.28266 205.1,138.58266 205.1,138.58266 205.1,138.58266 207.2,151.58266 225,151.58266 238.5,151.58266 239.1,134.92266 239.1,134.92266 239.1,134.92266 263.7,150.08266 270.1,142.18266 271.1,141.18266 272.1,139.78266 271.1,138.08266 264,131.47266 257.9,126.11266 254.2,122.89266 236.6,107.59266 229.5,102.57266 224.1,102.95266 z" />
        <path
             inkscape:connector-curvature="0"
             style="color:#000000;fill:#e7e7e7;fill-opacity:1;fill-rule:nonzero;stroke:none;marker:none;visibility:visible;display:inline;overflow:visible;enable-background:accumulate"
             id="path5340"
             d="M 224.1,102.95266 C 219.9,103.25266 216.7,106.81266 210.3,111.39266 207.3,113.52266 197,121.72266 182.9,133.11266 182.5,137.18266 182.6,141.28266 184.2,143.28266 188.1,148.28266 205.1,138.58266 205.1,138.58266 205.1,138.58266 207.2,151.58266 225,151.58266 225,151.58266 225.1,151.58266 225.1,151.58266 L 225.1,102.95266 C 224.8,102.95266 224.4,102.95266 224.1,102.95266 z" />
    </g>
    <path
         d="M 618.1,219.08266 C 612.1,220.30759 606.1,221.8825 599.1,223.98237 566.1,234.48176 465.1,283.1289 397.1,291.87839 330.1,300.45288 207.7,241.48134 149.1,237.98155 90.41,234.48176 1,260.55522 1,260.55522 L 0,262.13013 0,383.74799 618.1,383.74799 618.1,219.08266 z"
         id="rect5363"
         style="color:#000000;fill:#96cb78;fill-opacity:1;fill-rule:nonzero;stroke:none;marker:none;visibility:visible;display:inline;overflow:visible;enable-background:accumulate"
         inkscape:connector-curvature="0" />
    <path
         inkscape:connector-curvature="0"
         style="color:#000000;fill:#77b155;fill-opacity:1;fill-rule:nonzero;stroke:none;marker:none;visibility:visible;display:inline;overflow:visible;enable-background:accumulate"
         id="use3927"
         d="M 0,281.8074 C 6,282.56572 12,283.54072 19,284.8407 52,291.34063 153,321.45698 221,326.87359 288,332.18187 410.4,295.67392 469,293.50727 527.69,291.34063 617.1,307.48212 617.1,307.48212 L 618.1,308.45712 618.1,383.74799 0,383.74799 0,281.8074 z" />
</svg>
