<?xml version="1.0" encoding="UTF-8" standalone="no"?>
<!-- Created with Inkscape (http://www.inkscape.org/) -->

<svg
   xmlns:dc="http://purl.org/dc/elements/1.1/"
   xmlns:cc="http://creativecommons.org/ns#"
   xmlns:rdf="http://www.w3.org/1999/02/22-rdf-syntax-ns#"
   xmlns:svg="http://www.w3.org/2000/svg"
   xmlns="http://www.w3.org/2000/svg"
   xmlns:sodipodi="http://sodipodi.sourceforge.net/DTD/sodipodi-0.dtd"
   xmlns:inkscape="http://www.inkscape.org/namespaces/inkscape"
   width="1052.3622"
   height="744.09448"
   id="svg2"
   version="1.1"
   inkscape:version="0.48+devel r9772"
   sodipodi:docname="citta-di-inverno.svg">
  <defs
     id="defs4" />
  <sodipodi:namedview
     id="base"
     pagecolor="#ffffff"
     bordercolor="#666666"
     borderopacity="1.0"
     inkscape:pageopacity="0.0"
     inkscape:pageshadow="2"
     inkscape:zoom="0.66050071"
     inkscape:cx="543.95678"
     inkscape:cy="368.28919"
     inkscape:document-units="px"
     inkscape:current-layer="layer1"
     showgrid="false"
     inkscape:window-width="1440"
     inkscape:window-height="851"
     inkscape:window-x="0"
     inkscape:window-y="1"
     inkscape:window-maximized="1" />
  <metadata
     id="metadata7">
    <rdf:RDF>
      <cc:Work
         rdf:about="">
        <dc:format>image/svg+xml</dc:format>
        <dc:type
           rdf:resource="http://purl.org/dc/dcmitype/StillImage" />
        <dc:title />
      </cc:Work>
    </rdf:RDF>
  </metadata>
  <g
     inkscape:label="Layer 1"
     inkscape:groupmode="layer"
     id="layer1"
     transform="translate(0,-308.2677)">
    <g
       id="g3329">
      <rect
         y="326.4834"
         x="16.95952"
         height="709.84534"
         width="1024.8959"
         id="rect11703"
         style="color:#000000;fill:#87cdde;stroke:#000000;stroke-width:0.99931097000000002px;stroke-linecap:butt;stroke-linejoin:miter;stroke-miterlimit:4;stroke-opacity:1;stroke-dasharray:none;stroke-dashoffset:0;marker:none;visibility:visible;display:inline;overflow:visible;enable-background:accumulate" />
      <path
         style="color:#000000;fill:#2c89a0;stroke:none;stroke-width:1;marker:none;visibility:visible;display:inline;overflow:visible;enable-background:accumulate"
         d="m 283.37271,338.40202 c -95.26839,0 -186.273312,8.23994 -269.698207,23.21889 l 0,611.24574 c 83.424304,14.97867 174.430667,23.2189 269.698207,23.2189 402.80727,0 729.39819,-147.25338 729.39819,-328.87641 l -0.08,-2.84174 C 1009.2202,483.86345 683.71307,338.40202 283.37271,338.40202 z"
         id="path11714"
         inkscape:connector-curvature="0" />
      <path
         inkscape:connector-curvature="0"
         id="path11712"
         d="m 220.9567,355.4298 c -73.22052,0 -143.164248,6.73325 -207.282197,18.97327 l 0,499.47831 c 64.117495,12.2398 134.062347,18.97329 207.282197,18.97329 309.58597,0 560.5943,-120.32782 560.5943,-268.74075 l -0.0617,-2.32212 C 778.82196,474.29333 528.64667,355.4298 220.9567,355.4298 z"
         style="color:#000000;fill:#37abc8;stroke:none;stroke-width:1;marker:none;visibility:visible;display:inline;overflow:visible;enable-background:accumulate" />
      <path
         style="color:#000000;fill:#5fbcd3;stroke:none;stroke-width:1;marker:none;visibility:visible;display:inline;overflow:visible;enable-background:accumulate"
         d="m 158.83101,375.65028 c -51.2752,0 -100.255704,4.97323 -145.156507,14.01379 l 0,368.91815 c 44.900486,9.04039 93.881777,14.01379 145.156507,14.01379 216.79823,0 392.57547,-88.87496 392.57547,-198.49378 l -0.0432,-1.71512 C 549.49537,463.44371 374.30151,375.65028 158.83101,375.65028 z"
         id="path11710"
         inkscape:connector-curvature="0" />
      <g
         transform="matrix(0.5881231,0,0,0.58199502,215.63292,478.00178)"
         id="g10555">
        <path
           d="m 1329.2848,788.48252 v -74.16295 l -4.8719,-0.0797 -4.8718,-0.0797 -0.077,-5.38087 c -0.067,-4.71364 -0.139,-5.42828 -0.5817,-5.76248 -0.4796,-0.36214 -0.4794,-0.40077 0,-0.75922 0.7158,-0.53105 0.6327,-1.72883 -0.2127,-3.06797 -0.5927,-0.93895 -0.7712,-1.73064 -0.9984,-4.42977 -0.1522,-1.80759 -0.2758,-3.48273 -0.2747,-3.72298 0,-0.23996 -0.052,-1.13295 -0.1175,-1.98444 -0.092,-1.19097 0,-1.70483 0.4146,-2.2273 0.2939,-0.37355 0.5343,-1.02367 0.5343,-1.44475 0,-0.42104 0.2609,-1.27704 0.5798,-1.90221 l 0.5799,-1.13664 -0.6446,-0.45147 c -0.3545,-0.24834 -0.9427,-0.4515 -1.307,-0.4515 -0.3643,0 -0.6731,-0.0982 -0.6861,-0.21814 -0.013,-0.11998 -0.067,-0.61081 -0.1211,-1.09072 -0.054,-0.47992 -0.1736,-2.83587 -0.2667,-5.23544 -0.093,-2.39958 -0.2387,-5.29274 -0.3235,-6.42912 -0.1248,-1.67296 -0.065,-2.13999 0.3127,-2.45368 0.3786,-0.31419 0.4299,-0.72098 0.2713,-2.15122 -0.1522,-1.3736 -0.481,-2.22628 -1.4861,-3.85474 -0.7265,-1.17704 -1.6996,-2.33739 -2.2263,-2.65492 -1.5134,-0.91213 -3.8141,-1.31503 -6.3178,-1.10625 -2.4872,0.20744 -2.7694,0.071 -3.0816,-1.48939 -0.1538,-0.76883 -0.067,-0.94142 0.6527,-1.29371 0.7059,-0.34563 0.8177,-0.55638 0.747,-1.40781 -0.046,-0.55074 -0.2157,-1.13409 -0.3778,-1.29633 -0.4242,-0.42456 -20.6951,-0.52726 -29.5163,-0.14953 -6.5987,0.28254 -11.9461,0.65051 -14.2334,0.97938 -0.4799,0.069 -1.0353,-0.008 -1.2343,-0.17015 -0.2511,-0.20532 -0.6732,-0.14779 -1.3815,0.18836 -0.9751,0.46272 -1.0199,0.55109 -1.0199,2.01186 0,0.84035 0.1531,1.68105 0.3403,1.86821 0.2598,0.25983 0.2517,0.63468 -0.034,1.58518 -0.2061,0.68468 -0.4142,1.39199 -0.4626,1.57179 -0.058,0.2139 -1.5791,0.38242 -4.4012,0.48745 -2.3723,0.0883 -6.604,0.36529 -9.4035,0.61555 -2.7995,0.25028 -6.9224,0.5909 -9.162,0.75695 -2.2396,0.16605 -4.2541,0.36663 -4.4769,0.44574 -0.5411,0.19238 -0.2041,4.11157 0.4122,4.79247 0.2359,0.26064 0.4288,0.78363 0.4288,1.16221 0,0.37858 0.3404,1.04363 0.7565,1.47788 0.719,0.75056 0.7704,1.01716 1.0401,5.39687 0.156,2.53398 0.3064,5.98149 0.3342,7.66119 l 0.051,3.05401 -1.107,0.0912 c -1.3444,0.11082 -1.6188,0.65821 -0.8316,1.65902 0.3242,0.41215 0.6809,1.16858 0.7927,1.68099 0.1117,0.51237 0.5134,1.30159 0.8927,1.75378 0.5856,0.69838 0.6994,1.18013 0.7555,3.19944 0.036,1.3075 0.1025,3.22794 0.147,4.26776 0.044,1.03982 0.078,3.9993 0.075,6.57659 0,2.57732 0.1109,5.52223 0.2538,6.5443 0.3538,2.53012 -0.033,5.1956 -0.8494,5.85701 -0.3461,0.28024 -0.8503,0.50952 -1.1203,0.50952 -0.6778,0 -0.4591,-1.81731 0.3015,-2.50559 0.5483,-0.49629 0.5427,-0.52326 -0.2931,-1.39979 -0.8241,-0.86428 -0.8591,-1.01861 -1.0609,-4.67496 -0.1147,-2.07963 -0.2428,-4.95912 -0.2846,-6.39887 -0.1628,-5.60716 -0.5035,-9.007 -0.9544,-9.5256 -0.3898,-0.44833 -1.0463,-0.509 -5.5068,-0.509 -5.2915,0 -6.1891,0.17475 -6.1891,1.20479 0,0.36532 -0.1432,0.54565 -0.3636,0.45796 -3.9144,-1.55714 -5.4937,-1.66275 -24.8663,-1.66275 -9.4605,0 -17.2656,-0.10453 -17.3448,-0.23231 -0.079,-0.12777 -0.1844,-2.01427 -0.2343,-4.19213 l -0.091,-3.96003 -2.4733,-0.15035 c -1.3603,-0.0827 -3.7622,-0.15968 -5.3375,-0.17108 -1.5754,-0.0113 -2.9825,-0.0937 -3.1268,-0.18286 -0.1442,-0.0892 -0.2623,-1.40435 -0.2623,-2.92254 0,-3.64561 -0.2996,-4.22122 -2.5256,-4.85267 -0.9305,-0.2639 -3.6553,-0.62965 -6.0548,-0.81277 -4.9533,-0.37803 -4.9708,-0.37838 -9.2973,-0.19319 -3.7518,0.16055 -5.1002,-0.20296 -5.1002,-1.37489 0,-0.41965 -0.2438,-0.84349 -0.5925,-1.0301 -0.4115,-0.22027 -5.0516,-0.28999 -15.1973,-0.22838 l -14.6048,0.0887 -0.1455,1.74515 -0.1454,1.74515 -5.8172,0.17829 c -3.1994,0.0981 -7.0722,0.19016 -8.6062,0.20468 -2.1376,0.0204 -2.8762,0.13144 -3.1622,0.47613 -0.5539,0.66743 -2.2465,0.58245 -2.6289,-0.13196 -0.4204,-0.78561 -1.1622,-0.73247 -1.8796,0.13458 -0.521,0.62965 -0.8917,0.73491 -3.0651,0.87022 -5.7802,0.35988 -8.7676,0.70393 -9.1955,1.05898 -0.3839,0.3186 -0.4353,1.02071 -0.3324,4.54291 0.1346,4.60922 -0.034,5.16593 -1.3535,4.45972 -0.5613,-0.30042 -0.8034,-0.28789 -1.3717,0.071 -0.8582,0.54205 -3.9792,0.81763 -4.2625,0.37643 -0.1115,-0.1737 -0.2695,-1.03569 -0.3512,-1.91553 l -0.1485,-1.59972 -12.9432,-0.0334 c -10.5247,-0.0271 -13.0926,0.0422 -13.743,0.37105 -0.9144,0.46235 -0.8762,0.21794 -0.8033,5.13713 0.047,3.18955 -0.018,3.81082 -0.452,4.29016 -0.6707,0.74119 -0.9445,0.70722 -1.3427,-0.16655 -0.4194,-0.92054 -0.8301,-0.91763 -1.7035,0.0122 -0.3998,0.42553 -0.9459,0.70324 -1.2869,0.65443 -0.7373,-0.10558 -0.9335,-1.51682 -1.164,-8.37438 -0.089,-2.63954 -0.2214,-5.12637 -0.2949,-5.5263 -0.4915,-2.67496 -1.0309,-7.69669 -0.9841,-9.16203 0.031,-0.95983 -0.101,-4.88641 -0.2925,-8.72574 -0.1916,-3.83932 -0.4653,-9.33654 -0.6084,-12.21603 -0.143,-2.87949 -0.2695,-7.01869 -0.2812,-9.19838 -0.024,-4.58625 -0.1904,-5.69529 -0.9087,-6.07951 -0.2859,-0.15302 -1.5199,-0.30802 -2.7422,-0.34447 -1.2223,-0.0364 -2.3305,-0.2011 -2.4627,-0.36592 -0.1322,-0.16481 -0.3138,-2.26294 -0.4036,-4.66246 -0.09,-2.39958 -0.3047,-7.3078 -0.4774,-10.90717 -0.3132,-6.53005 -0.5258,-12.64068 -0.6981,-20.0692 -0.1513,-6.51929 -0.5138,-14.04436 -0.7283,-15.11326 -0.1774,-0.88445 -0.3495,-1.0434 -1.4171,-1.30886 -0.6683,-0.1662 -1.4035,-0.56119 -1.6338,-0.87779 -0.2384,-0.3277 -1.0257,-0.70448 -1.8282,-0.87484 l -1.4095,-0.29923 -0.049,-3.05168 c -0.027,-1.67846 -0.1892,-5.86574 -0.3602,-9.30513 -0.5043,-10.14629 -0.5745,-11.66428 -0.948,-20.50548 -0.196,-4.63919 -0.384,-9.94007 -0.4178,-11.77975 -0.1562,-8.49887 -0.5598,-15.39482 -0.9221,-15.75723 -0.4057,-0.40554 -2.5521,-0.49879 -3.2949,-0.14314 -0.3256,0.15591 -0.6036,0.0131 -0.9227,-0.47395 -0.3501,-0.53431 -0.4751,-1.66665 -0.5352,-4.8489 -0.077,-4.0976 -0.2803,-4.95418 -1.174,-4.95418 -0.9907,0 -5.9891,-0.68875 -6.3291,-0.87205 -0.2257,-0.12175 -0.5529,-0.65676 -0.7271,-1.18891 -0.4811,-1.46912 -2.5069,-2.88362 -4.1296,-2.88362 -1.4939,0 -1.7427,0.33917 -1.334,1.81902 0.4957,1.79553 -0.3692,2.43059 -1.9992,1.46779 -0.8101,-0.47855 -0.86,-0.47262 -1.5607,0.18564 -0.6854,0.64396 -0.8747,0.67148 -3.5708,0.51884 -1.5659,-0.0886 -4.1858,-0.0255 -5.8218,0.14026 l -2.9749,0.30142 -1.6296,-1.48934 c -2.2295,-2.03764 -3.3646,-1.99517 -2.785,0.10418 0.1549,0.56081 0.1692,1.08906 0.032,1.17391 -0.4981,0.30784 -4.7197,0.44268 -5.0583,0.16158 -0.1894,-0.15719 -0.8614,-0.36776 -1.4934,-0.46799 -0.9303,-0.14753 -1.3482,-0.0466 -2.1962,0.53072 -0.7806,0.53134 -1.5954,0.75804 -3.1995,0.89017 -1.1837,0.0975 -3.919,0.32469 -6.0786,0.5049 -2.2566,0.18829 -4.1942,0.49615 -4.556,0.72383 -0.3462,0.2179 -1.0006,0.3938 -1.4543,0.39086 -1.4408,-0.009 -4.5089,0.53829 -4.8332,0.8626 -0.3354,0.33541 -0.3543,2.47578 -0.05,5.62926 0.1041,1.07737 0.098,2.74616 -0.014,3.70844 -0.2257,1.94392 -0.5552,2.15633 -1.8118,1.16788 -0.8459,-0.66537 -1.899,-0.75658 -2.3574,-0.20419 -0.1724,0.20763 -0.3402,1.35289 -0.373,2.545 -0.065,2.36363 0.4324,16.9227 0.879,25.72697 0.1541,3.03946 0.2741,5.78807 0.2666,6.10801 -0.01,0.31995 0.153,4.5083 0.3568,9.30746 0.4148,9.76904 0.4221,10.04129 0.337,12.5796 -0.053,1.57695 -0.1348,1.81787 -0.6188,1.81787 -0.9427,0 -1.4781,0.32733 -1.4781,0.90369 0,0.30284 0.1672,0.55059 0.3715,0.55059 0.47,0 1.9554,1.67287 1.9554,2.20221 0,0.21849 -0.1667,0.33329 -0.3704,0.25514 -0.2164,-0.0831 -0.5081,0.22285 -0.7019,0.73628 -0.3236,0.85748 -1.044,1.16363 -1.3963,0.59346 -0.1048,-0.16946 -0.3769,-0.18332 -0.6717,-0.0342 -0.2725,0.13788 -0.8746,0.36424 -1.3379,0.50304 -0.4633,0.1388 -0.9338,0.44868 -1.0455,0.68863 -0.1117,0.23996 -0.3618,0.74105 -0.5559,1.11352 -0.2682,0.51494 -0.2719,0.77468 -0.015,1.08386 0.5427,0.6539 0.8396,7.63297 0.375,8.81356 -0.2114,0.5369 -0.3058,1.1032 -0.2099,1.2584 0.096,0.15523 0.2083,0.69759 0.2497,1.20526 0.041,0.50766 0.2095,1.57746 0.3734,2.37732 0.164,0.79986 0.3205,3.41031 0.348,5.80117 0.027,2.39079 0.1155,4.45303 0.1957,4.58275 0.08,0.12975 0.2024,2.34359 0.2717,4.91957 0.069,2.57604 0.2565,5.48733 0.4162,6.46985 0.1596,0.98234 0.2078,3.1622 0.1071,4.84394 l -0.1832,3.05808 -1.1966,-0.10933 c -0.6581,-0.0601 -1.377,-0.25825 -1.5976,-0.44021 -0.2205,-0.18196 -0.9404,-0.4677 -1.5997,-0.63497 l -1.1987,-0.3041 -0.2042,-4.78577 c -0.1122,-2.63224 -0.2678,-7.01084 -0.3457,-9.73036 -0.1251,-4.36869 -0.6068,-16.59316 -1.2982,-32.94256 -0.1454,-3.43823 -0.3467,-5.4341 -0.5706,-5.65806 -0.4719,-0.47186 -4.0779,-0.68305 -4.4976,-0.26339 -0.1794,0.1794 -0.4644,0.32619 -0.6333,0.32619 -0.7547,0 -0.9897,-1.87068 -1.187,-9.44619 -0.1123,-4.31575 -0.2541,-8.5041 -0.315,-9.30745 -0.061,-0.80347 -0.2371,-4.86402 -0.3916,-9.02329 -0.3462,-9.32519 -0.4755,-12.57728 -0.8671,-21.81434 -0.1696,-3.9993 -0.375,-9.28273 -0.4565,-11.74106 -0.082,-2.45828 -0.2246,-4.59323 -0.318,-4.74448 -0.2978,-0.48183 -1.5678,-0.82339 -3.2018,-0.86105 -1.20554,-0.0278 -1.65344,-0.16231 -1.86664,-0.56066 -0.1542,-0.28826 -0.2805,-2.47997 -0.2805,-4.87042 0,-3.23637 -0.098,-4.42744 -0.3823,-4.66361 -0.2104,-0.17456 -1.9446,-0.46235 -3.8539,-0.63954 -4.0714,-0.37786 -6.2473,-0.75588 -6.6461,-1.15465 -0.4451,-0.44507 -2.2946,-0.33763 -3.0278,0.17587 -0.4949,0.34665 -1.0754,0.42279 -2.3189,0.30421 -0.9123,-0.087 -1.7896,-0.17056 -1.9495,-0.18568 -0.16,-0.0151 -3.1198,0.0256 -6.5775,0.0904 l -6.2866,0.11789 -0.7791,-0.97633 c -0.7847,-0.98345 -1.6023,-1.28611 -1.6554,-0.61278 -0.016,0.19997 -0.048,0.69079 -0.073,1.09072 -0.044,0.72435 -0.057,0.72746 -3.294,0.80917 -2.8416,0.0717 -3.3713,0.008 -4.2174,-0.50793 -1.4434,-0.88002 -2.742,-0.78811 -3.2693,0.23143 -0.424,0.82001 -0.4444,0.82508 -4.734,1.1796 -8.4157,0.69556 -9.7234,0.89829 -11.6151,1.80094 -0.9795,0.46729 -1.951,0.84965 -2.1589,0.84965 -0.6426,0 -2.5294,0.99203 -2.8511,1.49902 -0.2073,0.3267 -0.2183,1.30657 -0.034,3.05401 0.1489,1.41514 0.273,3.63689 0.2759,4.93702 0.01,2.72374 -0.2417,3.10259 -1.9358,2.96297 -0.8775,-0.0724 -1.1886,-0.25839 -1.4905,-0.89133 -0.2098,-0.43992 -0.5084,-0.79986 -0.6636,-0.79986 -0.7153,0 -0.9091,1.67397 -0.6734,5.81716 0.132,2.31959 0.263,5.59174 0.2911,7.27145 0.1333,7.95729 0.4055,14.62113 0.6892,16.86976 0.1715,1.35976 0.2781,3.71571 0.237,5.23544 -0.041,1.51973 0.1062,6.29707 0.3276,10.61631 0.4304,8.39649 0.6663,14.79449 0.7187,19.48748 l 0.033,2.90858 -1.433,-0.0757 c -1.6914,-0.0893 -1.9594,-0.26641 -1.2205,-0.8067 0.6978,-0.51019 0.4123,-1.30255 -0.4641,-1.28812 -0.3649,0.006 -1.1582,0.43457 -1.7628,0.95239 -1.331,1.14004 -1.3043,0.7434 -0.7772,11.54357 0.2069,4.23926 0.4089,9.14749 0.4489,10.90718 0.04,1.75969 0.2183,6.73336 0.3963,11.0526 0.4619,11.20937 0.6873,17.43722 0.7157,19.77834 0.023,1.9198 -0.014,2.04147 -0.6537,2.13207 -0.3731,0.0529 -0.9274,-0.12923 -1.2317,-0.40461 -0.4402,-0.39842 -0.8661,-0.46366 -2.0847,-0.31936 -0.8423,0.0997 -1.6724,0.3739 -1.8446,0.60932 -0.1722,0.23539 -0.2839,1.31752 -0.2483,2.40472 0.036,1.0872 0.1455,4.33262 0.2441,7.21211 0.099,2.8795 0.2464,7.52595 0.3286,10.32546 0.082,2.79951 0.2903,8.75482 0.4628,13.23404 0.1724,4.47921 0.3629,9.71465 0.4233,11.63432 0.061,1.91966 0.1636,5.12637 0.2291,7.12601 0.065,1.99965 0.2005,6.12256 0.3,9.16203 0.099,3.03946 0.2472,8.01313 0.3284,11.0526 0.3712,13.88672 0.6158,18.62334 0.9984,19.33071 0.3092,0.572 0.3472,2.26773 0.1892,8.43488 -0.2168,8.45756 -0.2965,8.82463 -2.0433,9.40663 -0.6433,0.21445 -0.9744,0.14907 -1.6046,-0.31686 -0.9555,-0.70643 -3.0336,-0.93255 -8.2923,-0.90233 l -3.7623,0.0215 -0.7899,0.84562 c -0.4344,0.46508 -0.9912,0.84561 -1.2372,0.84561 -0.2461,0 -1.0523,-0.52355 -1.7916,-1.16343 -1.321,-1.14337 -1.3834,-1.16344 -3.6168,-1.16344 -1.9174,0 -2.4942,0.12173 -3.6907,0.77895 -0.78,0.4284 -1.8487,1.2125 -2.3749,1.74244 -0.5262,0.52995 -1.3115,1.04084 -1.7452,1.13531 -0.4336,0.0944 -1.1156,0.28135 -1.5156,0.41531 -0.3999,0.13397 -1.091,0.32315 -1.5358,0.42041 -0.6062,0.13254 -0.8524,0.3956 -0.9834,1.05052 -0.205,1.02458 -1.3441,2.01937 -2.3125,2.01937 -1.4453,0 -1.4699,-0.24758 -1.5497,-15.5609 -0.041,-7.83862 -0.1183,-15.88811 -0.1721,-17.88776 -0.1678,-6.24007 -0.7343,-17.5335 -0.8923,-17.78916 -0.2038,-0.32978 -1.9431,-0.30924 -2.8448,0.0336 -0.5593,0.21264 -0.8686,0.1616 -1.3213,-0.21815 -0.4728,-0.39658 -0.6069,-0.90308 -0.6703,-2.53177 l -0.079,-2.036 -1.1635,0.0752 c -0.6399,0.0413 -2.145,0.0774 -3.3448,0.08 -1.1998,0.003 -2.588,0.13641 -3.0849,0.29714 -1.5213,0.49216 -2.3642,-0.0293 -2.6011,-1.60906 -0.1293,-0.86228 -0.3927,-1.43506 -0.7471,-1.62476 -0.5038,-0.2696 -0.5475,-0.69582 -0.5475,-5.33724 0,-4.12902 -0.079,-5.1098 -0.4363,-5.40618 -0.3205,-0.26599 -0.4391,-0.98944 -0.4468,-2.72604 -0.01,-2.06009 -0.1008,-2.47456 -0.7136,-3.22445 l -0.7031,-0.86039 -7.45,0.0218 c -5.1887,0.0154 -7.5513,0.12321 -7.7837,0.35554 -0.2195,0.21951 -0.31,1.42657 -0.2644,3.52898 l 0.069,3.19537 h -2.7978 c -2.0711,0 -3.0074,0.1239 -3.6054,0.47712 -1.1707,0.69152 -2.2581,0.3413 -2.5603,-0.82461 -0.2845,-1.09813 -0.9768,-1.48288 -0.8675,-0.4821 0.069,0.63227 -0.06,0.68864 -2.0845,0.91388 -1.1869,0.13202 -2.5917,0.42125 -3.1217,0.64268 l -0.9637,0.40263 -0.078,7.50647 -0.078,7.50646 -8.1199,0.0774 c -5.5245,0.0527 -8.247,0.18295 -8.5178,0.40761 -0.2798,0.23222 -0.3774,0.92359 -0.3291,2.32974 0.063,1.82603 0,2.06704 -0.7097,2.77784 -0.6609,0.66097 -0.8968,0.73659 -1.5647,0.50144 -0.4869,-0.17141 -0.8662,-0.57538 -0.9959,-1.06062 -0.2861,-1.07024 -0.7195,-9.77835 -1.0032,-20.15791 -0.3715,-13.588 -1.0258,-28.6972 -1.3036,-30.10379 -0.7146,-3.61798 -0.8642,-6.25402 -0.5427,-9.56108 0.4312,-4.43645 -0.4676,-31.74423 -1.0846,-32.95129 -0.2455,-0.48056 -0.8131,-0.90887 -1.492,-1.12585 -0.6027,-0.19264 -1.2148,-0.45994 -1.3602,-0.59405 -0.1454,-0.13409 -0.827,-0.16669 -1.5146,-0.0725 -0.9361,0.1283 -1.5815,0.0157 -2.5683,-0.44818 -1.5225,-0.71568 -1.7231,-0.73878 -2.4532,-0.2828 -0.6978,0.43576 -1.4889,0.12606 -1.4889,-0.58288 0,-0.30537 -0.1636,-0.68625 -0.3636,-0.84642 -0.4567,-0.36582 -6.1752,-1.07103 -6.5929,-0.81301 -0.2064,0.1276 -0.1579,0.42064 0.1466,0.8854 0.4485,0.68451 0.4389,0.69739 -0.6577,0.88398 -0.612,0.10415 -1.5709,0.30755 -2.1308,0.45199 -0.5599,0.14447 -1.691,0.26337 -2.5135,0.26427 -1.3401,0.003 -1.5138,-0.0715 -1.6722,-0.70242 -0.097,-0.38719 -0.098,-0.90966 0,-1.16096 0.1076,-0.28024 -0.018,-0.53119 -0.3248,-0.6489 -0.2752,-0.10558 -5.1599,0.0453 -10.8549,0.33536 -9.1655,0.46679 -10.465,0.59253 -11.3167,1.09496 l -0.962,0.56761 0.7562,0.70082 c 0.4159,0.38545 0.7051,0.85437 0.6425,1.042 -0.141,0.42294 -1.6546,0.85233 -2.2943,0.65085 -0.6588,-0.20755 -5.5184,-0.20118 -9.8455,0.0128 -2.8922,0.14307 -3.8181,0.29638 -4.5604,0.7551 -1.1203,0.69238 -1.5187,2.00942 -0.8969,2.965 0.6348,0.9758 0.8064,3.26256 0.2991,3.98679 -0.3235,0.46188 -0.3766,1.06576 -0.2247,2.55682 0.1093,1.07364 0.1811,3.64241 0.1594,5.70867 -0.031,2.92806 0.065,3.97631 0.4335,4.7532 0.3376,0.71161 0.4248,1.42564 0.3046,2.49695 -0.5215,4.65053 -0.525,5.01352 -0.06,6.12751 0.548,1.31156 0.6147,4.01413 0.1187,4.80846 -0.2701,0.43251 -0.2666,1.0308 0.016,2.68648 0.5967,3.49815 0.7079,5.21479 0.3602,5.56266 -0.501,0.50097 -0.3964,3.74508 0.1457,4.51906 0.3318,0.4738 0.416,1.01329 0.2935,1.88258 -0.4357,3.09501 -0.5301,5.73746 -0.2182,6.11325 0.3683,0.44382 0.4362,2.82283 0.1708,5.98353 -0.122,1.4535 -0.066,2.36703 0.1723,2.8125 0.2401,0.44854 0.2873,1.24933 0.1475,2.501 -0.2734,2.44804 -0.1991,5.14848 0.1601,5.81949 0.1811,0.33838 0.2147,1.90741 0.089,4.1645 -0.1438,2.58831 -0.1048,3.73752 0.1367,4.02867 0.2198,0.26486 0.2775,1.00457 0.1651,2.11652 -0.4755,4.70491 -0.4725,5.66242 0.021,6.70165 0.3465,0.73017 0.4328,1.38053 0.2968,2.23612 -0.1054,0.66356 -0.2602,2.18748 -0.344,3.38646 -0.084,1.199 -0.2936,2.26729 -0.4661,2.37395 -0.1726,0.10669 -0.639,0.0703 -1.0365,-0.0808 -0.5821,-0.22131 -0.8553,-0.14996 -1.4058,0.36718 -0.578,0.543 -0.6833,0.92647 -0.6833,2.48899 0,1.70256 -0.057,1.8687 -0.7271,2.12352 -0.579,0.22012 -0.7272,0.47812 -0.7272,1.26605 0,0.54428 -0.1636,1.12193 -0.3635,1.28367 -0.2,0.16175 -1.5411,0.44874 -2.9802,0.63771 -2.8047,0.36831 -4.3631,0.94072 -4.8041,1.76449 -0.151,0.28225 -0.67,0.65105 -1.1533,0.81952 -0.7138,0.24883 -0.8787,0.46973 -0.8787,1.17687 0,0.47878 0.1447,0.95997 0.3216,1.06928 0.2066,0.12774 0.042,0.45787 -0.4604,0.92385 -0.5612,0.52032 -0.693,0.814 -0.467,1.03999 0.5795,0.5796 0.3245,1.2479 -1.0062,2.63678 l -1.3212,1.37881 -3.2599,-0.14255 c -1.7929,-0.0784 -3.4563,-0.17487 -3.6962,-0.21434 -0.24,-0.0395 -0.8617,0.0271 -1.3816,0.14776 -0.9265,0.21515 -0.9453,0.19956 -0.9453,-0.78599 0,-0.55303 -0.1636,-1.13452 -0.3636,-1.29219 -0.1999,-0.1577 -1.5602,-0.36761 -3.0229,-0.46654 -2.1532,-0.1456 -2.7273,-0.0978 -3.0167,0.2511 -0.2423,0.29194 -0.9136,0.43091 -2.0816,0.43091 -2.2544,0 -3.4403,0.59442 -3.4403,1.72455 0,0.79518 -0.076,0.84515 -1.527,0.99965 -0.8398,0.0894 -1.6579,0.15896 -1.8179,0.15451 -1.4525,-0.0404 -4.0743,0.0444 -5.3808,0.17396 -0.8799,0.0873 -2.2542,0.22314 -3.054,0.30197 -0.7999,0.0788 -1.9079,0.14895 -2.4622,0.15581 -0.5543,0.007 -1.1433,0.11329 -1.3088,0.2365 -0.1656,0.1232 -1.2571,0.24595 -2.4256,0.27276 -2.8106,0.0645 -3.1317,0.26652 -3.3498,2.10686 -0.2243,1.8941 -0.577,2.30831 -1.9653,2.30831 -0.7096,0 -1.5044,0.26436 -2.1864,0.72714 -0.5893,0.39993 -1.3057,0.72715 -1.5918,0.72715 -0.5507,0 -1.4345,-0.72959 -1.4345,-1.1842 0,-0.14854 -0.2618,-0.27009 -0.5817,-0.27009 -0.32,0 -0.5818,0.1502 -0.5818,0.33379 0,0.24371 -0.7652,0.27305 -2.8358,0.10872 -3.6762,-0.29179 -3.3684,-0.3212 -5.8899,0.56272 -4.6005,1.61278 -6.5225,1.85181 -15.4678,1.92368 -0.6323,0.005 -0.9431,0.2924 -1.6445,1.51996 -1.2599,2.205 -4.2111,5.09002 -6.0836,5.94718 -1.3697,0.62706 -1.8156,0.69549 -3.3705,0.51737 -0.9857,-0.11291 -2.7461,-0.18545 -3.9123,-0.16119 -2.8982,0.0603 -4.8899,-0.56217 -6.2116,-1.94124 -1.7895,-1.86749 -2.1262,-2.79323 -2.1996,-6.04781 -0.1747,-7.75108 -0.2784,-9.34061 -0.6543,-10.0346 -0.2166,-0.39993 -0.4851,-0.92348 -0.5965,-1.16343 -0.3194,-0.68756 -1.3697,-0.68003 -2.3483,0.0169 -0.7455,0.53087 -1.3638,0.65274 -3.6567,0.7208 -1.9484,0.0578 -2.9031,0.21018 -3.248,0.51831 -0.2686,0.24005 -0.9466,0.48102 -1.5065,0.53553 -0.9526,0.0928 -1.0204,0.0431 -1.0552,-0.77345 -0.05,-1.16457 -0.371,-4.05631 -0.6278,-5.65137 -0.2734,-1.69748 -0.944,-1.89119 -5.0069,-1.44638 -5.1438,0.56316 -6.3023,0.91769 -7.4744,2.28696 -1.2116,1.41549 -2.3285,2.04581 -3.6363,2.05235 -0.5279,0.003 -1.9414,0.2431 -3.1413,0.53442 l -2.1814,0.52963 -0.024,1.66111 c -0.041,2.7546 -0.8088,3.06943 -7.514,3.08019 -4.5891,0.007 -7.7493,0.39877 -8.808,1.09095 -0.9796,0.64041 -1.2075,2.72641 -0.4089,3.7416 1.1563,1.47002 0.7361,2.46284 -1.3452,3.17849 -1.248,0.42905 -1.4601,0.91225 -1.5033,3.42544 -0.024,1.39582 -0.1562,1.81288 -0.7691,2.42572 -0.5046,0.50458 -0.8979,0.67229 -1.2361,0.52707 -0.2728,-0.11713 -1.1351,-0.30401 -1.9162,-0.41523 -1.2285,-0.17495 -1.588,-0.39513 -2.6628,-1.63102 l -1.2426,-1.42878 -3.0357,0.0711 c -2.6084,0.0611 -3.33,-0.0317 -5.1273,-0.65961 -1.4143,-0.49416 -2.2532,-0.64727 -2.591,-0.47296 -0.2748,0.14176 -1.0101,0.35005 -1.634,0.46284 -0.6239,0.1128 -1.6487,0.61842 -2.2773,1.12359 -1.0062,0.80867 -1.1203,1.02344 -0.9535,1.79648 0.8528,3.95363 0.3932,4.80468 -2.5943,4.80468 -2.5966,0 -2.9606,-0.48867 -3.1988,-4.29539 -0.3771,-6.02628 -0.9977,-7.90639 -2.6176,-7.92908 -0.332,-0.005 -1.5199,-0.26677 -2.6397,-0.5825 -4.5953,-1.29557 -4.6514,-1.30036 -14.8652,-1.27381 -5.4565,0.0142 -10.1355,0.10823 -10.3981,0.20901 -0.4408,0.16913 -0.4775,5.19269 -0.4775,65.34414 l 0,65.1609 h 446.7577 446.75784 V 788.48183 z M 821.09776,761.65844 c 0.1867,-0.18664 0.4359,-0.24278 0.5539,-0.12477 0.118,0.11803 0.026,0.33122 -0.2048,0.4738 -0.5432,0.33571 -0.7885,0.0904 -0.3491,-0.34903 z M 942.2983,584.28456 c 1.0077,-1.11352 -0.4843,-2.74407 -1.5426,-1.68579 -0.7003,0.70027 -0.2287,2.2687 0.6821,2.2687 0.1831,0 0.5704,-0.26231 0.8605,-0.58291 z"
           style="fill:#4d4d4d"
           id="path2818"
           inkscape:connector-curvature="0" />
        <g
           id="g10538"
           style="fill:#808080;fill-opacity:1;stroke:none"
           transform="matrix(-1,0,0,1,166.99224,409.14286)">
          <path
             inkscape:connector-curvature="0"
             id="path2896"
             style="fill:#808080;fill-opacity:1;stroke:none"
             d="m -246.72663,386.4947 v -67.79507 l 34.8626,-22.59844 v 90.39432 h -34.8626 z" />
          <path
             inkscape:connector-curvature="0"
             id="path2898"
             style="fill:#808080;fill-opacity:1;stroke:none"
             d="m -211.86501,296.1796 h 11.62059 23.2409 v 90.39435 h -34.86261 V 296.1796 z" />
          <path
             inkscape:connector-curvature="0"
             id="path2900"
             style="fill:#808080;fill-opacity:1;stroke:none"
             d="m -177.0024,386.4947 v -11.29937 l 81.343223,-11.29908 v -11.29936 h 23.240897 v -11.29937 h 58.101485 v 22.59845 H 32.16385 V 250.90239 H 43.784438 V 239.60302 H 55.405027 V 228.30366 H 67.025616 90.266484 V 386.49304 H -177.00492 z" />
          <path
             inkscape:connector-curvature="0"
             id="path2902"
             style="fill:#808080;fill-opacity:1;stroke:none"
             d="M 55.397993,386.4947 V 239.60493 H 67.018581 V 228.30556 H 90.25945 V 386.49498 H 55.396872 z" />
          <path
             inkscape:connector-curvature="0"
             id="path2904"
             style="fill:#808080;fill-opacity:1;stroke:none"
             d="M 90.27464,386.4947 V 171.80987 h 23.2409 V 386.4947 h -23.2409 z" />
          <path
             inkscape:connector-curvature="0"
             id="path2906"
             style="fill:#808080;fill-opacity:1;stroke:none"
             d="M 90.27464,171.89733 V 92.802626 h 23.2409 v 79.094704 h -23.2409 z" />
          <path
             inkscape:connector-curvature="0"
             id="path2908"
             style="fill:#808080;fill-opacity:1;stroke:none"
             d="M 90.27464,92.786232 V 81.486868 h 23.2409 v 11.299364 h -23.2409 z" />
          <path
             inkscape:connector-curvature="0"
             id="path2910"
             sodipodi:nodetypes="ccccc"
             style="fill:#808080;fill-opacity:1;stroke:none"
             d="M 91.651714,81.363641 101.89719,36.282602 h 11.62059 V 81.478404 L 91.651994,81.361539 z" />
          <path
             inkscape:connector-curvature="0"
             id="path2912"
             sodipodi:nodetypes="ccccccc"
             style="fill:#808080;fill-opacity:1;stroke:none"
             d="m 115.42742,34.224909 67.79172,2.068315 c 11.98329,28.993739 9.76033,53.382912 11.62037,79.094706 v 271.18299 h -81.34309 l 1.93015,-352.351784 z" />
          <path
             inkscape:connector-curvature="0"
             id="path2914"
             sodipodi:nodetypes="cccccccccc"
             style="fill:#808080;fill-opacity:1;stroke:none"
             d="m 194.84847,363.97741 h 41.02272 l 8.18924,-19.26185 8.89071,19.26185 h 23.24101 v -33.8989 h 23.24101 v 56.49544 H 194.84819 V 363.9755 z" />
        </g>
        <g
           id="g10393"
           transform="matrix(2.4333625,0,0,2.4333625,-2446.311,-1180.0829)">
          <path
             inkscape:connector-curvature="0"
             id="rect2085"
             sodipodi:nodetypes="cccccccccsssccccccccccsccccccccccccccccccsssccccccccsssccccccccccccccscccccccccc"
             style="fill:#000000"
             d="m 1194.6391,718.96306 v 48.5507 h -21.795 v 18.45752 h -35.2008 v 21.79498 h -30.1422 V 730.6477 h -43.5899 c 0.028,-0.26588 0.042,-0.53876 0.042,-0.81163 0,-4.16309 -3.3724,-4.08612 -7.5355,-4.08612 -4.1631,0 -7.5775,-0.077 -7.5775,4.08612 0,0.27287 0.014,0.54575 0.042,0.81163 h -35.1981 v 63.67074 h -23.46508 v 16.79229 H 960.02919 V 742.3813 h -30.14425 v 28.5189 H 916.4826 c 0,-1.84715 -3.76847,-3.38644 -8.39335,-3.38644 -4.62487,0 -8.34856,1.53929 -8.34856,3.38644 h -11.73221 v 56.94684 h -28.47342 v 51.94413 h 725.56664 l -0.028,-50.2719 H 1558.22 v -33.48662 h -15.071 v 33.48662 h -16.7433 v -35.20083 h -23.4673 v 35.20083 h -16.7363 v -55.2816 h -8.711 c 0.2029,-0.53176 0.3149,-1.0915 0.3149,-1.66524 0,-3.7013 -4.5129,-2.58181 -10.0614,-2.58181 -5.5484,0 -10.0194,-1.11949 -10.0194,2.58181 0,0.57374 0.112,1.13348 0.3149,1.66524 h -10.3763 v 35.20082 h -43.5969 v 20.08078 h -8.3472 V 742.3813 h -11.9085 c 0.091,-0.25888 0.1749,-0.53875 0.1749,-0.81162 0,-2.31594 -3.9252,-1.15447 -8.0883,-1.15447 -4.1631,0 -6.9828,-1.16147 -6.9828,1.15447 0,0.27287 0.042,0.55274 0.14,0.81162 h -10.2014 v 87.13797 h -31.8563 v -88.8102 h -11.7336 v 88.8102 h -15.0711 v -30.14215 h -11.7336 v -1.67223 h -11.7336 V 775.9099 h -11.7336 c 0,-1.84715 -2.6308,-3.33747 -5.8703,-3.33747 -3.2325,0 -5.8144,1.49032 -5.8144,3.33747 h -11.7336 v 25.13245 h -3.3864 v -13.39884 h -33.4866 v -20.12975 h -1.6653 v -48.5507 h -8.3961 z" />
          <rect
             id="rect4843"
             style="fill:#ffffff"
             height="1.9346112"
             width="2.7637303"
             y="747.18811"
             x="1363.8143" />
          <rect
             id="rect5730"
             style="fill:#ffffff"
             height="1.9346112"
             width="2.7637303"
             y="750.71448"
             x="1363.8914" />
          <rect
             id="rect5732"
             style="fill:#ffffff"
             height="1.9346112"
             width="2.7637303"
             y="748.24463"
             x="1383.8741" />
          <rect
             id="rect5734"
             style="fill:#ffffff"
             height="1.9346112"
             width="2.7637303"
             y="751.19727"
             x="1383.8882" />
          <rect
             id="rect5736"
             style="fill:#ffffff"
             height="1.9346112"
             width="2.7637303"
             y="754.16388"
             x="1383.9231" />
          <rect
             id="rect5738"
             style="fill:#ffffff"
             height="1.9346112"
             width="2.7637303"
             y="764.02936"
             x="1374.5614" />
          <rect
             id="rect5740"
             style="fill:#ffffff"
             height="1.9346112"
             width="2.7637303"
             y="767.12195"
             x="1365.0038" />
          <rect
             id="rect5742"
             style="fill:#ffffff"
             height="1.9346112"
             width="2.7637303"
             y="769.94861"
             x="1374.6174" />
          <rect
             id="rect5744"
             style="fill:#ffffff"
             height="1.9346112"
             width="2.7637303"
             y="795.35394"
             x="1389.7164" />
          <rect
             id="rect5748"
             style="fill:#ffffff"
             height="1.9346112"
             width="2.7637303"
             y="801.27325"
             x="1389.7655" />
          <rect
             id="rect5750"
             style="fill:#ffffff"
             height="1.9346112"
             width="2.7637303"
             y="787.41962"
             x="1365.9133" />
          <rect
             id="rect5754"
             style="fill:#ffffff"
             height="1.9346112"
             width="2.7637303"
             y="793.33887"
             x="1365.9624" />
          <rect
             id="rect5756"
             style="fill:#ffffff"
             height="1.9346112"
             width="2.7637303"
             y="776.88947"
             x="1370.0135" />
          <rect
             id="rect5764"
             style="fill:#ffffff"
             height="1.9346112"
             width="2.7637303"
             y="764.65906"
             x="1388.772" />
          <rect
             id="rect5766"
             style="fill:#ffffff"
             height="1.9346112"
             width="2.7637303"
             y="778.84155"
             x="1384.5669" />
          <rect
             id="rect5768"
             style="fill:#ffffff"
             height="1.9346112"
             width="2.7637303"
             y="805.75122"
             x="1366.3192" />
          <rect
             id="rect5770"
             style="fill:#ffffff"
             height="1.9346112"
             width="2.7637303"
             y="808.71082"
             x="1366.3333" />
          <rect
             id="rect5776"
             style="fill:#ffffff"
             height="1.9346112"
             width="2.7637303"
             y="808.9837"
             x="1384.9376" />
          <rect
             id="rect5780"
             style="fill:#ffffff"
             height="1.9346112"
             width="2.7637303"
             y="766.76514"
             x="1384.2379" />
          <rect
             id="rect5782"
             style="fill:#ffffff"
             height="1.9346112"
             width="2.7637303"
             y="778.88354"
             x="1377.829" />
          <rect
             id="rect5784"
             style="fill:#ffffff"
             height="1.9346112"
             width="2.7637303"
             y="778.7016"
             x="1389.3527" />
          <rect
             id="rect5802"
             style="fill:#ffffff"
             height="1.9346112"
             width="2.7637303"
             y="802.35773"
             x="1475.546" />
          <rect
             id="rect5804"
             style="fill:#ffffff"
             height="1.9346112"
             width="2.7637303"
             y="786.70593"
             x="1456.4728" />
          <rect
             id="rect5806"
             style="fill:#ffffff"
             height="1.9346112"
             width="2.7637303"
             y="807.47943"
             x="1460.7408" />
          <rect
             id="rect5808"
             style="fill:#ffffff"
             height="1.9346112"
             width="2.7637303"
             y="795.242"
             x="1467.8566" />
          <rect
             id="rect5810"
             style="fill:#ffffff"
             height="1.9346112"
             width="2.7637303"
             y="786.1322"
             x="1475.546" />
          <rect
             id="rect5812"
             style="fill:#ffffff"
             height="1.9346112"
             width="2.7637303"
             y="823.69794"
             x="1460.4609" />
          <rect
             id="rect5814"
             style="fill:#ffffff"
             height="1.9346112"
             width="2.7637303"
             y="804.63171"
             x="1509.9772" />
          <rect
             id="rect5816"
             style="fill:#ffffff"
             height="1.9346112"
             width="2.7637303"
             y="816.58923"
             x="1520.7943" />
          <rect
             id="rect5818"
             style="fill:#ffffff"
             height="1.9346112"
             width="2.7637303"
             y="820.57037"
             x="1509.6973" />
          <rect
             id="rect5820"
             style="fill:#ffffff"
             height="1.9346112"
             width="2.7637303"
             y="809.47345"
             x="1551.811" />
          <rect
             id="rect5822"
             style="fill:#ffffff"
             height="1.9346112"
             width="2.7637303"
             y="801.784"
             x="1548.6835" />
          <rect
             id="rect5824"
             style="fill:#ffffff"
             height="1.9346112"
             width="2.7637303"
             y="821.99072"
             x="1550.9574" />
          <rect
             id="rect5826"
             style="fill:#ffffff"
             height="1.9346112"
             width="2.7637303"
             y="819.7168"
             x="1415.7795" />
          <rect
             id="rect5828"
             style="fill:#ffffff"
             height="1.9346112"
             width="2.7637303"
             y="819.42993"
             x="1434.5588" />
          <rect
             id="rect5830"
             style="fill:#ffffff"
             height="1.9346112"
             width="2.7637303"
             y="827.11938"
             x="1424.0287" />
          <rect
             id="rect5832"
             style="fill:#ffffff"
             height="1.9346112"
             width="2.7637303"
             y="843.90466"
             x="1390.4512" />
          <rect
             id="rect5834"
             style="fill:#ffffff"
             height="1.9346112"
             width="2.7637303"
             y="852.7276"
             x="1445.6627" />
          <rect
             id="rect5836"
             style="fill:#ffffff"
             height="1.9346112"
             width="2.7637303"
             y="841.34381"
             x="1458.1799" />
          <rect
             id="rect5838"
             style="fill:#ffffff"
             height="1.9346112"
             width="2.7637303"
             y="849.31317"
             x="1520.7943" />
          <rect
             id="rect5840"
             style="fill:#ffffff"
             height="1.9346112"
             width="2.7637303"
             y="838.78302"
             x="1556.6528" />
          <rect
             id="rect5842"
             style="fill:#ffffff"
             height="1.9346112"
             width="2.7637303"
             y="857.84924"
             x="1490.911" />
          <rect
             id="rect5844"
             style="fill:#ffffff"
             height="1.9346112"
             width="2.7637303"
             y="842.77118"
             x="1491.4777" />
          <rect
             id="rect5846"
             style="fill:#ffffff"
             height="1.9346112"
             width="2.7637303"
             y="780.44379"
             x="1320.7212" />
          <rect
             id="rect5848"
             style="fill:#ffffff"
             height="1.9346112"
             width="2.7637303"
             y="788.12628"
             x="1251.285" />
          <rect
             id="rect5850"
             style="fill:#ffffff"
             height="1.9346112"
             width="2.7637303"
             y="787.83942"
             x="1263.2356" />
          <rect
             id="rect5852"
             style="fill:#ffffff"
             height="1.9346112"
             width="2.7637303"
             y="800.93042"
             x="1260.3879" />
          <rect
             id="rect5854"
             style="fill:#ffffff"
             height="1.9346112"
             width="2.7637303"
             y="799.51007"
             x="1247.8706" />
          <rect
             id="rect5856"
             style="fill:#ffffff"
             height="1.9346112"
             width="2.7637303"
             y="812.60101"
             x="1291.9784" />
          <rect
             id="rect5858"
             style="fill:#ffffff"
             height="1.9346112"
             width="2.7637303"
             y="781.86414"
             x="1183.5492" />
          <rect
             id="rect5860"
             style="fill:#ffffff"
             height="1.9346112"
             width="2.7637303"
             y="808.04614"
             x="1184.9695" />
          <rect
             id="rect5862"
             style="fill:#ffffff"
             height="1.9346112"
             width="2.7637303"
             y="808.04614"
             x="1218.8409" />
          <rect
             id="rect5864"
             style="fill:#ffffff"
             height="1.9346112"
             width="2.7637303"
             y="781.01056"
             x="1034.7065" />
          <rect
             id="rect5866"
             style="fill:#ffffff"
             height="1.9346112"
             width="2.7637303"
             y="783.85828"
             x="1056.9073" />
          <rect
             id="rect5868"
             style="fill:#ffffff"
             height="1.9346112"
             width="2.7637303"
             y="797.23608"
             x="1039.8282" />
          <rect
             id="rect5870"
             style="fill:#ffffff"
             height="1.9346112"
             width="2.7637303"
             y="796.94922"
             x="1044.9498" />
          <rect
             id="rect5872"
             style="fill:#ffffff"
             height="1.9346112"
             width="2.7637303"
             y="796.94922"
             x="1051.7787" />
          <rect
             id="rect5874"
             style="fill:#ffffff"
             height="1.9346112"
             width="2.7637303"
             y="778.73657"
             x="1081.9489" />
          <rect
             id="rect5876"
             style="fill:#ffffff"
             height="1.9346112"
             width="2.7637303"
             y="798.65643"
             x="1079.6749" />
          <rect
             id="rect5878"
             style="fill:#ffffff"
             height="1.9346112"
             width="2.7637303"
             y="744.58527"
             x="1033.5662" />
          <rect
             id="rect5880"
             style="fill:#ffffff"
             height="1.9346112"
             width="2.7637303"
             y="743.44482"
             x="1077.6808" />
          <rect
             id="rect5882"
             style="fill:#ffffff"
             height="1.9346112"
             width="2.7637303"
             y="760.52399"
             x="1056.9073" />
          <rect
             id="rect5884"
             style="fill:#ffffff"
             height="1.9346112"
             width="2.7637303"
             y="758.24298"
             x="1028.1576" />
          <rect
             id="rect5886"
             style="fill:#ffffff"
             height="1.9346112"
             width="2.7637303"
             y="749.42004"
             x="1092.7659" />
          <rect
             id="rect5888"
             style="fill:#ffffff"
             height="1.9346112"
             width="2.7637303"
             y="737.18268"
             x="1062.5957" />
          <rect
             id="rect5890"
             style="fill:#ffffff"
             height="1.9346112"
             width="2.7637303"
             y="786.70593"
             x="1093.8994" />
          <rect
             id="rect5892"
             style="fill:#ffffff"
             height="1.9346112"
             width="2.7637303"
             y="766.49921"
             x="1089.3514" />
          <rect
             id="rect5894"
             style="fill:#ffffff"
             height="1.9346112"
             width="2.7637303"
             y="760.23712"
             x="1073.9795" />
          <rect
             id="rect5896"
             style="fill:#ffffff"
             height="1.9346112"
             width="2.7637303"
             y="755.68219"
             x="1088.4979" />
          <rect
             id="rect5898"
             style="fill:#ffffff"
             height="1.9346112"
             width="2.7637303"
             y="750.56055"
             x="1077.3939" />
          <rect
             id="rect5900"
             style="fill:#ffffff"
             height="1.9346112"
             width="2.7637303"
             y="785.56549"
             x="898.95422" />
          <rect
             id="rect5902"
             style="fill:#ffffff"
             height="1.9346112"
             width="2.7637303"
             y="786.41907"
             x="938.51318" />
          <rect
             id="rect5904"
             style="fill:#ffffff"
             height="1.9346112"
             width="2.7637303"
             y="803.49121"
             x="931.39832" />
          <rect
             id="rect5906"
             style="fill:#ffffff"
             height="1.9346112"
             width="2.7637303"
             y="798.08972"
             x="910.90753" />
          <rect
             id="rect5908"
             style="fill:#ffffff"
             height="1.9346112"
             width="2.7637303"
             y="784.42499"
             x="922.57611" />
          <rect
             id="rect5910"
             style="fill:#ffffff"
             height="1.9346112"
             width="2.7637303"
             y="804.35187"
             x="899.23901" />
          <rect
             id="rect5912"
             style="fill:#ffffff"
             height="1.9346112"
             width="2.7637303"
             y="822.84436"
             x="904.07727" />
          <rect
             id="rect5914"
             style="fill:#ffffff"
             height="1.9346112"
             width="2.7637303"
             y="819.15002"
             x="927.69843" />
          <rect
             id="rect5916"
             style="fill:#ffffff"
             height="1.9346112"
             width="2.7637303"
             y="801.50415"
             x="947.62018" />
          <rect
             id="rect5918"
             style="fill:#ffffff"
             height="1.9346112"
             width="2.7637303"
             y="794.95514"
             x="932.25195" />
          <rect
             id="rect5920"
             style="fill:#ffffff"
             height="1.9346112"
             width="2.7637303"
             y="776.74249"
             x="946.48181" />
          <rect
             id="rect5922"
             style="fill:#ffffff"
             height="1.9346112"
             width="2.7637303"
             y="786.1322"
             x="947.05096" />
          <rect
             id="rect5924"
             style="fill:#ffffff"
             height="1.9346112"
             width="2.7637303"
             y="798.02673"
             x="1150.4753" />
          <rect
             id="rect5926"
             style="fill:#ffffff"
             height="1.9346112"
             width="2.7637303"
             y="798.02673"
             x="1164.28" />
          <rect
             id="rect5928"
             style="fill:#ffffff"
             height="1.9346112"
             width="2.7637303"
             y="809.2356"
             x="1148.7472" />
          <rect
             id="rect5930"
             style="fill:#ffffff"
             height="1.9346112"
             width="2.7637303"
             y="816.14142"
             x="1087.4973" />
          <rect
             id="rect5932"
             style="fill:#ffffff"
             height="1.9346112"
             width="2.7637303"
             y="808.375"
             x="1000.3586" />
          <rect
             id="rect5934"
             style="fill:#ffffff"
             height="1.9346112"
             width="2.7637303"
             y="839.43372"
             x="962.39832" />
          <rect
             id="rect5936"
             style="fill:#ffffff"
             height="1.9346112"
             width="2.7637303"
             y="859.27661"
             x="1092.668" />
          <rect
             id="rect5938"
             style="fill:#ffffff"
             height="1.9346112"
             width="2.7637303"
             y="845.47192"
             x="1024.5122" />
          <rect
             id="rect5940"
             style="fill:#ffffff"
             height="1.9346112"
             width="2.7637303"
             y="854.099"
             x="1156.5137" />
          <rect
             id="rect5942"
             style="fill:#ffffff"
             height="1.9346112"
             width="2.7637303"
             y="865.31482"
             x="1186.7047" />
          <rect
             id="rect5944"
             style="fill:#ffffff"
             height="1.9346112"
             width="2.7637303"
             y="839.43372"
             x="1197.9205" />
          <rect
             id="rect5946"
             style="fill:#ffffff"
             height="1.9346112"
             width="2.7637303"
             y="843.75073"
             x="1279.881" />
          <rect
             id="rect5948"
             style="fill:#ffffff"
             height="1.9346112"
             width="2.7637303"
             y="848.06073"
             x="1243.6445" />
          <rect
             id="rect5950"
             style="fill:#ffffff"
             height="1.9346112"
             width="2.7637303"
             y="855.82715"
             x="1338.549" />
          <rect
             id="rect5952"
             style="fill:#ffffff"
             height="1.9346112"
             width="2.7637303"
             y="841.16193"
             x="1310.9397" />
          <rect
             id="rect5954"
             style="fill:#ffffff"
             height="1.9346112"
             width="2.7637303"
             y="805.78619"
             x="1319.5667" />
          <rect
             id="rect5956"
             style="fill:#ffffff"
             height="1.9346112"
             width="2.7637303"
             y="866.17542"
             x="1408.4259" />
          <path
             inkscape:connector-curvature="0"
             id="path5958"
             style="fill:none;stroke:#000000;stroke-width:1.9513334px"
             d="m 1078.5204,726.51959 c -0.1329,1.35738 0.8467,8.54308 0.8676,8.62704" />
          <path
             inkscape:connector-curvature="0"
             id="path5960"
             style="fill:none;stroke:#000000;stroke-width:1.9513334px"
             d="m 943.07472,738.60304 v 6.89883" />
          <path
             inkscape:connector-curvature="0"
             id="path5962"
             style="fill:none;stroke:#000000;stroke-width:1.9513334px"
             d="m 1033.6641,727.38719 v 6.03823" />
          <path
             inkscape:connector-curvature="0"
             id="path5964"
             style="fill:none;stroke:#000000;stroke-width:1.9513334px"
             d="m 1025.037,726.51959 v 6.90583" />
          <path
             inkscape:connector-curvature="0"
             id="path5966"
             style="fill:none;stroke:#000000;stroke-width:1.9513334px"
             d="m 1094.0533,728.2478 v 4.31002" />
          <path
             inkscape:connector-curvature="0"
             id="path5968"
             style="fill:none;stroke:#000000;stroke-width:1.9513334px"
             d="m 1364.9478,740.32425 v 1.72821" />
          <path
             inkscape:connector-curvature="0"
             id="path5970"
             style="fill:none;stroke:#000000;stroke-width:1.9513334px"
             d="M 1452.9464,770.52237 V 775.7" />
          <path
             inkscape:connector-curvature="0"
             id="path5972"
             style="fill:none;stroke:#000000;stroke-width:1.9513334px"
             d="m 894.76178,767.93356 v 3.44942" />
          <path
             inkscape:connector-curvature="0"
             id="path5978"
             style="fill:none;stroke:#000000;stroke-width:1.9513334px"
             d="m 1120.795,804.16992 v 7.75943" />
          <path
             inkscape:connector-curvature="0"
             id="path5980"
             style="fill:none;stroke:#000000;stroke-width:1.9513334px"
             d="m 1346.8332,826.59461 0.8606,8.63404" />
          <path
             inkscape:connector-curvature="0"
             id="path5982"
             style="fill:none;stroke:#000000;stroke-width:1.9513334px"
             d="m 1336.4779,825.73401 v 9.49464" />
        </g>
      </g>
      <path
         inkscape:connector-curvature="0"
         id="path11705"
         d="m 119.05895,403.32041 c -37.226081,0 -72.786209,3.69321 -105.384447,10.4069 l 0,273.96529 c 32.598007,6.71356 68.158698,10.40689 105.384447,10.40689 157.39675,0 285.01202,-66.00015 285.01202,-147.40507 l -0.0313,-1.27368 C 402.6835,468.5174 275.49175,403.32041 119.05895,403.32041 z"
         style="color:#000000;fill:#87cdde;stroke:none;stroke-width:1;marker:none;visibility:visible;display:inline;overflow:visible;enable-background:accumulate" />
      <rect
         transform="matrix(0,1,-1,0,0,0)"
         y="-1038.5059"
         x="322.44214"
         height="1024.6494"
         width="715.74561"
         id="rect3069"
         style="color:#000000;fill:none;stroke:#00aad4;stroke-width:19.98621941000000035;stroke-linecap:butt;stroke-linejoin:miter;stroke-miterlimit:4;stroke-opacity:1;stroke-dasharray:none;stroke-dashoffset:0;marker:none;visibility:visible;display:inline;overflow:visible;enable-background:accumulate" />
    </g>
  </g>
</svg>
