<?xml version="1.0" encoding="utf-8"?>
<svg viewBox="0 0 500 500" xmlns="http://www.w3.org/2000/svg">
  <defs>
    <linearGradient gradientUnits="userSpaceOnUse" x1="10" y1="2" x2="10" y2="18" id="gradient-0" gradientTransform="matrix(1.069401, 0, 0, 1.069401, -0.381823, -0.35973)">
      <stop offset="0" style="stop-color: rgba(238, 164, 103, 1)"/>
      <stop offset="1" style="stop-color: rgba(215, 110, 24, 1)"/>
    </linearGradient>
  </defs>
  <g transform="matrix(28.8125, 0, 0, 28.8125, -47.84174, -48.319146)">
    <path d="M 1.757 10.334 C 1.757 5.61 5.588 1.779 10.312 1.779 C 15.037 1.779 18.868 5.61 18.868 10.334 C 18.868 15.059 15.037 18.89 10.312 18.89 C 5.588 18.89 1.757 15.059 1.757 10.334 Z M 12.406 6.27 C 12.525 6 12.401 5.686 12.13 5.567 C 11.86 5.448 11.545 5.572 11.426 5.843 L 7.684 14.398 C 7.565 14.668 7.689 14.983 7.959 15.102 C 8.23 15.22 8.545 15.096 8.663 14.826 L 12.406 6.27 Z M 6.948 7.817 C 6.738 7.608 6.401 7.608 6.191 7.817 L 4.052 9.955 C 3.843 10.165 3.843 10.503 4.052 10.712 L 6.191 12.852 C 6.401 13.06 6.738 13.06 6.948 12.852 C 7.157 12.642 7.157 12.304 6.948 12.095 L 5.187 10.334 L 6.948 8.574 C 7.157 8.364 7.157 8.027 6.948 7.817 Z M 13.677 8.574 L 15.438 10.334 L 13.677 12.095 C 13.468 12.304 13.468 12.642 13.677 12.852 C 13.886 13.06 14.224 13.06 14.434 12.852 L 16.572 10.712 C 16.781 10.503 16.781 10.165 16.572 9.955 L 14.434 7.817 C 14.224 7.608 13.886 7.608 13.677 7.817 C 13.468 8.027 13.468 8.364 13.677 8.574 Z" style="fill-rule: nonzero; fill: url(#gradient-0); filter: none;"/>
  </g>
</svg>