<?xml version="1.0" encoding="utf-8"?>
<svg viewBox="-138.686 -32.176 620.419 122.296" xmlns="http://www.w3.org/2000/svg">
  <defs>
    <linearGradient gradientUnits="userSpaceOnUse" x1="23.2" y1="21.72" x2="23.2" y2="90.12" id="gradient-0">
      <stop offset="0" style="stop-color: rgba(238, 164, 103, 1)"/>
      <stop offset="1" style="stop-color: rgba(215, 110, 24, 1)"/>
    </linearGradient>
    <linearGradient gradientUnits="userSpaceOnUse" x1="80.85" y1="21.72" x2="80.85" y2="72.12" id="gradient-1">
      <stop offset="0" style="stop-color: rgba(238, 164, 103, 1)"/>
      <stop offset="1" style="stop-color: rgba(215, 110, 24, 1)"/>
    </linearGradient>
    <linearGradient gradientUnits="userSpaceOnUse" x1="124.95" y1="7.02" x2="124.95" y2="72.12" id="gradient-2">
      <stop offset="0" style="stop-color: rgba(238, 164, 103, 1)"/>
      <stop offset="1" style="stop-color: rgba(215, 110, 24, 1)"/>
    </linearGradient>
    <linearGradient gradientUnits="userSpaceOnUse" x1="180.65" y1="0.72" x2="180.65" y2="71.22" id="gradient-3">
      <stop offset="0" style="stop-color: rgba(238, 164, 103, 1)"/>
      <stop offset="1" style="stop-color: rgba(215, 110, 24, 1)"/>
    </linearGradient>
    <linearGradient gradientUnits="userSpaceOnUse" x1="243.25" y1="21.72" x2="243.25" y2="72.12" id="gradient-4">
      <stop offset="0" style="stop-color: rgba(238, 164, 103, 1)"/>
      <stop offset="1" style="stop-color: rgba(215, 110, 24, 1)"/>
    </linearGradient>
    <linearGradient gradientUnits="userSpaceOnUse" x1="294.768" y1="21.92" x2="294.768" y2="71.92" id="gradient-5">
      <stop offset="0" style="stop-color: rgba(238, 164, 103, 1)"/>
      <stop offset="1" style="stop-color: rgba(215, 110, 24, 1)"/>
    </linearGradient>
    <linearGradient gradientUnits="userSpaceOnUse" x1="339.237" y1="0" x2="339.237" y2="89.84" id="gradient-6">
      <stop offset="0" style="stop-color: rgba(68, 69, 157, 1)"/>
      <stop offset="1" style="stop-color: rgba(37, 38, 86, 1)"/>
    </linearGradient>
    <linearGradient gradientUnits="userSpaceOnUse" x1="376.305" y1="21.72" x2="376.305" y2="72.12" id="gradient-8">
      <stop offset="0" style="stop-color: rgba(57, 110, 209, 1)"/>
      <stop offset="1" style="stop-color: rgba(31, 67, 133, 1)"/>
    </linearGradient>
    <linearGradient gradientUnits="userSpaceOnUse" x1="413.296" y1="0" x2="413.296" y2="89.833" id="gradient-7">
      <stop offset="0" style="stop-color: rgba(68, 69, 157, 1)"/>
      <stop offset="1" style="stop-color: rgba(37, 38, 86, 1)"/>
    </linearGradient>
    <linearGradient gradientUnits="userSpaceOnUse" x1="443.449" y1="22.22" x2="443.449" y2="82.27" id="gradient-9">
      <stop offset="0" style="stop-color: rgba(85, 81, 81, 1)"/>
      <stop offset="1" style="stop-color: rgba(33, 31, 31, 1)"/>
    </linearGradient>
    <linearGradient gradientUnits="userSpaceOnUse" x1="10" y1="2" x2="10" y2="18" id="gradient-10" gradientTransform="matrix(1.171717, 0, 0, 1.171717, -2.112168, -3.350283)">
      <stop offset="0" style="stop-color: rgba(238, 164, 103, 1)"/>
      <stop offset="1" style="stop-color: rgba(215, 110, 24, 1)"/>
    </linearGradient>
  </defs>
  <g id="svgGroup" stroke-linecap="round" fill-rule="evenodd" font-size="9pt" stroke="#000" stroke-width="0.25mm" fill="black" style="stroke:#000;stroke-width:0.25mm;fill:black" transform="matrix(1, 0, 0, 1, 28.782784, -17.072697)">
    <path d="M 38.5 68.82 L 38.5 57.52 L 39.5 57.52 C 38.953 62.179 36.383 64.453 33.15 66.72 C 29.917 68.987 26.133 70.12 21.8 70.12 C 19.819 70.133 17.843 69.908 15.915 69.45 C 13.895 68.966 11.966 68.163 10.2 67.07 C 7.018 65.081 4.46 62.236 2.818 58.861 C 2.761 58.748 2.705 58.634 2.65 58.52 C 1.518 56.135 0.75 53.594 0.373 50.981 C 0.119 49.272 -0.005 47.547 0 45.82 C -0.007 43.885 0.152 41.954 0.475 40.046 C 0.712 38.663 1.054 37.3 1.5 35.97 C 2.089 34.192 2.896 32.494 3.903 30.915 C 4.482 30.015 5.133 29.164 5.85 28.37 C 7.75 26.27 10.05 24.637 12.75 23.47 C 15.45 22.303 18.467 21.72 21.8 21.72 C 26.2 21.72 30 22.837 33.2 25.07 C 36.4 27.303 38.467 30.32 39.4 34.12 L 38.4 35.32 L 38.4 26.02 C 38.397 25.623 38.433 25.226 38.508 24.836 C 38.599 24.38 38.746 23.975 38.95 23.622 C 39.087 23.384 39.256 23.165 39.45 22.97 C 39.892 22.535 40.443 22.227 41.046 22.08 C 41.454 21.973 41.905 21.92 42.4 21.92 C 42.784 21.917 43.168 21.951 43.546 22.021 C 43.977 22.104 44.359 22.239 44.692 22.424 C 44.954 22.569 45.193 22.753 45.4 22.97 C 45.755 23.35 46.017 23.807 46.166 24.305 C 46.322 24.802 46.4 25.374 46.4 26.02 L 46.4 67.72 C 46.414 69.861 46.234 71.999 45.862 74.107 C 45.068 78.422 43.397 81.877 40.85 84.47 C 38.793 86.527 36.258 88.041 33.472 88.879 C 31.599 89.474 29.527 89.855 27.257 90.022 C 26.34 90.088 25.42 90.121 24.5 90.12 C 20.967 90.12 17.517 89.703 14.15 88.87 C 11.198 88.156 8.373 86.99 5.777 85.414 C 5.515 85.254 5.256 85.089 5 84.92 C 4.742 84.772 4.5 84.599 4.276 84.403 C 4.003 84.162 3.787 83.9 3.63 83.618 C 3.559 83.491 3.498 83.358 3.45 83.22 C 3.302 82.796 3.228 82.379 3.228 81.968 C 3.228 81.733 3.252 81.5 3.3 81.27 C 3.432 80.652 3.728 80.081 4.157 79.617 C 4.171 79.601 4.186 79.586 4.2 79.57 C 4.482 79.262 4.822 79.012 5.2 78.835 C 5.408 78.739 5.626 78.667 5.85 78.62 C 6.03 78.582 6.213 78.563 6.397 78.563 C 6.698 78.563 7.003 78.614 7.312 78.717 C 7.479 78.773 7.642 78.841 7.8 78.92 C 9.079 79.71 10.405 80.421 11.772 81.048 C 13.192 81.693 14.578 82.194 15.93 82.551 C 16.02 82.575 16.11 82.598 16.2 82.62 C 18.624 83.235 21.111 83.569 23.612 83.616 C 23.775 83.619 23.937 83.62 24.1 83.62 C 25.476 83.63 26.849 83.505 28.201 83.249 C 30.961 82.705 33.177 81.562 34.85 79.82 C 36.173 78.416 37.144 76.719 37.685 74.867 C 38.076 73.6 38.326 72.203 38.436 70.674 C 38.479 70.057 38.501 69.439 38.5 68.82 Z M 23.3 63.52 C 26.433 63.52 29.133 62.803 31.4 61.37 C 33.335 60.137 34.929 58.436 36.034 56.425 C 36.255 56.032 36.461 55.63 36.65 55.22 C 37.366 53.646 37.869 51.984 38.146 50.277 C 38.388 48.804 38.507 47.313 38.5 45.82 C 38.512 44.047 38.343 42.277 37.994 40.539 C 37.371 37.546 36.173 35.023 34.4 32.97 C 32.076 30.261 28.771 28.586 25.212 28.314 C 24.577 28.25 23.939 28.219 23.3 28.22 C 20.233 28.22 17.567 28.937 15.3 30.37 C 13.297 31.646 11.656 33.416 10.537 35.511 C 10.365 35.825 10.202 36.145 10.05 36.47 C 8.834 39.066 8.218 42.132 8.201 45.667 C 8.201 45.718 8.2 45.769 8.2 45.82 C 8.2 50.407 9.186 54.2 11.158 57.199 C 11.506 57.729 11.888 58.237 12.3 58.72 C 14.722 61.586 18.231 63.309 21.979 63.474 C 22.419 63.505 22.859 63.52 23.3 63.52 Z" id="0" vector-effect="non-scaling-stroke" style="paint-order: stroke; stroke-width: 0px; fill-rule: nonzero; fill: url(#gradient-0);"/>
    <path d="M 99.6 48.62 L 64.8 48.62 L 64.8 43.32 L 97.7 43.32 L 96.1 44.62 A 30.376 30.376 0 0 0 95.846 40.579 Q 95.463 37.726 94.5 35.47 A 13.863 13.863 0 0 0 92.474 32.079 A 11.657 11.657 0 0 0 89.85 29.72 A 11.744 11.744 0 0 0 85.929 28.103 Q 84.213 27.72 82.2 27.72 A 18.424 18.424 0 0 0 78.104 28.154 A 13.666 13.666 0 0 0 73.55 30.07 A 14.422 14.422 0 0 0 68.373 36.185 A 17.371 17.371 0 0 0 68.2 36.57 Q 66.4 40.72 66.4 46.22 L 66.4 46.82 A 30.453 30.453 0 0 0 66.835 52.14 Q 67.791 57.52 70.85 60.82 A 14.451 14.451 0 0 0 78.198 65.027 Q 80.617 65.62 83.5 65.62 Q 86.9 65.62 90.25 64.72 A 21.861 21.861 0 0 0 95.343 62.61 A 25.78 25.78 0 0 0 96.8 61.72 Q 98.127 60.867 99.229 60.867 A 2.802 2.802 0 0 1 99.35 60.87 A 3.498 3.498 0 0 1 100.18 61.001 A 2.507 2.507 0 0 1 101.2 61.57 Q 101.9 62.22 102.15 63.17 A 2.73 2.73 0 0 1 102.24 63.868 Q 102.24 64.513 101.95 65.22 Q 101.528 66.251 100.36 67.019 A 6.421 6.421 0 0 1 100.2 67.12 A 23.148 23.148 0 0 1 95.352 69.796 A 28.852 28.852 0 0 1 92.4 70.82 A 32.314 32.314 0 0 1 84.602 72.1 A 29.93 29.93 0 0 1 83.5 72.12 A 32.645 32.645 0 0 1 77.174 71.536 A 23.881 23.881 0 0 1 70.25 69.07 Q 64.7 66.02 61.65 60.42 A 24.331 24.331 0 0 1 59.143 53.21 A 33.62 33.62 0 0 1 58.6 47.02 A 32.499 32.499 0 0 1 59.259 40.323 A 24.762 24.762 0 0 1 61.6 33.77 Q 64.6 28.12 69.85 24.92 A 21.93 21.93 0 0 1 79.009 21.879 A 27.575 27.575 0 0 1 82 21.72 A 25 25 0 0 1 86.924 22.186 A 20.034 20.034 0 0 1 90.8 23.37 Q 94.7 25.02 97.45 28.12 A 20.185 20.185 0 0 1 100.844 33.501 A 24.521 24.521 0 0 1 101.65 35.62 A 28.38 28.38 0 0 1 102.856 41.193 A 36.991 36.991 0 0 1 103.1 45.52 A 4.505 4.505 0 0 1 103.021 46.395 Q 102.833 47.343 102.2 47.87 Q 101.3 48.62 99.6 48.62 Z" id="1" vector-effect="non-scaling-stroke" style="paint-order: stroke; stroke-width: 0px; fill-rule: nonzero; fill: url(#gradient-1);"/>
    <path d="M 117.1 54.42 L 117.1 28.92 L 110.4 28.92 A 5.441 5.441 0 0 1 109.393 28.833 Q 108.826 28.726 108.382 28.488 A 2.708 2.708 0 0 1 107.8 28.07 A 2.794 2.794 0 0 1 106.984 26.574 A 4.14 4.14 0 0 1 106.9 25.72 A 3.993 3.993 0 0 1 107.002 24.791 A 2.587 2.587 0 0 1 107.8 23.42 A 2.905 2.905 0 0 1 108.86 22.833 Q 109.295 22.693 109.823 22.645 A 6.377 6.377 0 0 1 110.4 22.62 L 117.1 22.62 L 117.1 11.12 Q 117.1 9.606 117.731 8.636 A 3.165 3.165 0 0 1 118.2 8.07 Q 119.288 7.032 121.157 7.02 A 6.839 6.839 0 0 1 121.2 7.02 A 5.518 5.518 0 0 1 122.393 7.141 Q 123.457 7.377 124.15 8.07 A 3.366 3.366 0 0 1 124.985 9.503 Q 125.146 10.036 125.187 10.679 A 7.031 7.031 0 0 1 125.2 11.12 L 125.2 22.62 L 137.8 22.62 Q 139.5 22.62 140.4 23.42 Q 141.3 24.22 141.3 25.72 A 4.021 4.021 0 0 1 141.187 26.704 A 2.764 2.764 0 0 1 140.4 28.07 A 2.894 2.894 0 0 1 139.259 28.721 Q 138.624 28.92 137.8 28.92 L 125.2 28.92 L 125.2 53.62 A 21.688 21.688 0 0 0 125.423 56.838 Q 125.673 58.502 126.205 59.844 A 9.15 9.15 0 0 0 127.6 62.27 A 7.36 7.36 0 0 0 130.966 64.561 Q 132.848 65.22 135.4 65.22 Q 137.3 65.22 138.65 64.82 A 12.868 12.868 0 0 1 139.45 64.609 Q 139.866 64.515 140.228 64.467 A 5.221 5.221 0 0 1 140.9 64.42 Q 141.8 64.32 142.4 65.02 A 1.99 1.99 0 0 1 142.741 65.617 Q 142.959 66.194 142.994 67.077 A 8.778 8.778 0 0 1 143 67.42 A 5.568 5.568 0 0 1 142.807 68.908 A 4.93 4.93 0 0 1 142.55 69.62 A 2.564 2.564 0 0 1 141.102 70.981 A 3.402 3.402 0 0 1 141 71.02 Q 139.8 71.42 137.85 71.77 Q 135.916 72.117 134.326 72.12 A 14.614 14.614 0 0 1 134.3 72.12 A 26.28 26.28 0 0 1 130.129 71.807 Q 127.855 71.441 125.966 70.647 A 14.761 14.761 0 0 1 124.75 70.07 Q 120.9 68.02 119 64.07 Q 117.281 60.496 117.117 55.49 A 32.735 32.735 0 0 1 117.1 54.42 Z" id="2" vector-effect="non-scaling-stroke" style="paint-order: stroke; stroke-width: 0px; fill-rule: nonzero; fill: url(#gradient-2);"/>
    <path d="M 174.7 71.22 L 155.4 71.22 A 6.72 6.72 0 0 1 154.099 71.102 Q 153.346 70.953 152.765 70.617 A 3.443 3.443 0 0 1 152.05 70.07 Q 151.036 69.056 150.916 67.224 A 7.739 7.739 0 0 1 150.9 66.72 L 150.9 5.22 A 6.72 6.72 0 0 1 151.018 3.918 Q 151.167 3.166 151.503 2.585 A 3.443 3.443 0 0 1 152.05 1.87 Q 153.065 0.856 154.896 0.736 A 7.739 7.739 0 0 1 155.4 0.72 L 174.7 0.72 Q 191.8 0.72 201.1 9.72 Q 209.383 17.736 210.289 32.256 A 58.86 58.86 0 0 1 210.4 35.92 A 53.44 53.44 0 0 1 209.892 43.472 Q 209.308 47.565 208.05 51.07 Q 205.7 57.62 201.1 62.12 A 29.185 29.185 0 0 1 191.717 68.23 A 34.519 34.519 0 0 1 189.9 68.92 A 39.867 39.867 0 0 1 182.323 70.715 A 54.747 54.747 0 0 1 174.7 71.22 Z M 159.1 7.72 L 159.1 64.22 L 174.1 64.22 A 45.859 45.859 0 0 0 179.823 63.882 Q 183.333 63.44 186.25 62.42 A 23.694 23.694 0 0 0 191.767 59.683 A 20.397 20.397 0 0 0 194.85 57.12 A 20.449 20.449 0 0 0 198.837 51.284 A 25.771 25.771 0 0 0 200 48.27 A 34.763 34.763 0 0 0 201.301 42.314 Q 201.675 39.498 201.699 36.342 A 57.034 57.034 0 0 0 201.7 35.92 A 45.901 45.901 0 0 0 201.06 27.982 Q 199.598 19.672 194.8 14.77 A 21.681 21.681 0 0 0 185.891 9.387 Q 180.812 7.72 174.1 7.72 L 159.1 7.72 Z" id="3" vector-effect="non-scaling-stroke" style="paint-order: stroke; stroke-width: 0px; fill-rule: nonzero; fill: url(#gradient-3);"/>
    <path d="M 262 48.62 L 227.2 48.62 L 227.2 43.32 L 260.1 43.32 L 258.5 44.62 A 30.376 30.376 0 0 0 258.246 40.579 Q 257.863 37.726 256.9 35.47 A 13.863 13.863 0 0 0 254.874 32.079 A 11.657 11.657 0 0 0 252.25 29.72 A 11.744 11.744 0 0 0 248.329 28.103 Q 246.613 27.72 244.6 27.72 A 18.424 18.424 0 0 0 240.504 28.154 A 13.666 13.666 0 0 0 235.95 30.07 A 14.422 14.422 0 0 0 230.773 36.185 A 17.371 17.371 0 0 0 230.6 36.57 Q 228.8 40.72 228.8 46.22 L 228.8 46.82 A 30.453 30.453 0 0 0 229.235 52.14 Q 230.191 57.52 233.25 60.82 A 14.451 14.451 0 0 0 240.598 65.027 Q 243.017 65.62 245.9 65.62 Q 249.3 65.62 252.65 64.72 A 21.861 21.861 0 0 0 257.743 62.61 A 25.78 25.78 0 0 0 259.2 61.72 Q 260.527 60.867 261.629 60.867 A 2.802 2.802 0 0 1 261.75 60.87 A 3.498 3.498 0 0 1 262.58 61.001 A 2.507 2.507 0 0 1 263.6 61.57 Q 264.3 62.22 264.55 63.17 A 2.73 2.73 0 0 1 264.64 63.868 Q 264.64 64.513 264.35 65.22 Q 263.928 66.251 262.76 67.019 A 6.421 6.421 0 0 1 262.6 67.12 A 23.148 23.148 0 0 1 257.752 69.796 A 28.852 28.852 0 0 1 254.8 70.82 A 32.314 32.314 0 0 1 247.002 72.1 A 29.93 29.93 0 0 1 245.9 72.12 A 32.645 32.645 0 0 1 239.574 71.536 A 23.881 23.881 0 0 1 232.65 69.07 Q 227.1 66.02 224.05 60.42 A 24.331 24.331 0 0 1 221.543 53.21 A 33.62 33.62 0 0 1 221 47.02 A 32.499 32.499 0 0 1 221.659 40.323 A 24.762 24.762 0 0 1 224 33.77 Q 227 28.12 232.25 24.92 A 21.93 21.93 0 0 1 241.409 21.879 A 27.575 27.575 0 0 1 244.4 21.72 A 25 25 0 0 1 249.324 22.186 A 20.034 20.034 0 0 1 253.2 23.37 Q 257.1 25.02 259.85 28.12 A 20.185 20.185 0 0 1 263.244 33.501 A 24.521 24.521 0 0 1 264.05 35.62 A 28.38 28.38 0 0 1 265.256 41.193 A 36.991 36.991 0 0 1 265.5 45.52 A 4.505 4.505 0 0 1 265.421 46.395 Q 265.233 47.343 264.6 47.87 Q 263.7 48.62 262 48.62 Z" id="4" vector-effect="non-scaling-stroke" style="paint-order: stroke; stroke-width: 0px; fill-rule: nonzero; fill: url(#gradient-4);"/>
    <path d="M 289.5 68.02 L 272.2 27.62 A 6.338 6.338 0 0 1 271.828 26.622 Q 271.656 25.996 271.656 25.408 A 3.859 3.859 0 0 1 271.7 24.82 Q 271.9 23.52 272.9 22.72 A 3.351 3.351 0 0 1 274.035 22.139 Q 274.51 21.995 275.078 21.946 A 7.186 7.186 0 0 1 275.7 21.92 Q 276.83 21.92 277.611 22.269 A 2.849 2.849 0 0 1 278.2 22.62 A 3.388 3.388 0 0 1 278.795 23.231 Q 279.296 23.88 279.723 24.927 A 12.243 12.243 0 0 1 279.8 25.12 L 296.2 65.22 L 293.5 65.22 L 310.2 25.12 A 10.302 10.302 0 0 1 310.61 24.195 Q 311.094 23.239 311.661 22.736 A 2.77 2.77 0 0 1 311.8 22.62 Q 312.49 22.084 313.649 21.958 A 6.994 6.994 0 0 1 314.4 21.92 A 5.125 5.125 0 0 1 315.348 22.002 Q 316.273 22.176 316.85 22.72 A 3.205 3.205 0 0 1 317.821 24.568 A 4.09 4.09 0 0 1 317.85 24.77 Q 317.997 25.99 317.428 27.449 A 8.559 8.559 0 0 1 317.4 27.52 L 299.9 68.02 Q 299.296 69.747 298.207 70.691 A 4.481 4.481 0 0 1 297.85 70.97 Q 296.5 71.92 294.7 71.92 A 5.145 5.145 0 0 1 292.732 71.549 A 4.873 4.873 0 0 1 291.7 70.97 Q 290.595 70.162 289.779 68.596 A 11.147 11.147 0 0 1 289.5 68.02 Z" id="5" vector-effect="non-scaling-stroke" style="paint-order: stroke; stroke-width: 0px; fill-rule: nonzero; fill: url(#gradient-5);"/>
    <path d="M 341.5 88.12 Q 335.9 77.82 333.3 66.97 Q 330.7 56.12 330.7 44.92 Q 330.7 37.42 331.85 30.12 Q 333 22.82 335.4 15.72 Q 337.8 8.62 341.5 1.72 A 3.665 3.665 0 0 1 342.103 0.886 A 2.75 2.75 0 0 1 343.45 0.12 A 4.241 4.241 0 0 1 344.343 0.001 Q 345.117 -0.017 345.85 0.27 A 2.813 2.813 0 0 1 347.4 1.74 A 3.823 3.823 0 0 1 347.5 1.97 Q 348 3.22 347.3 5.12 Q 344.7 11.72 342.9 18.32 Q 341.1 24.92 340.2 31.52 Q 339.3 38.12 339.3 44.92 Q 339.3 51.72 340.25 58.32 Q 341.2 64.92 343 71.47 Q 344.8 78.02 347.3 84.72 Q 347.988 86.354 347.678 87.507 A 2.536 2.536 0 0 1 347.55 87.87 A 3.505 3.505 0 0 1 346.979 88.782 A 2.879 2.879 0 0 1 345.85 89.57 Q 344.729 90.009 343.513 89.735 A 4.644 4.644 0 0 1 343.45 89.72 A 2.818 2.818 0 0 1 341.807 88.607 A 4.024 4.024 0 0 1 341.5 88.12 Z" id="6" vector-effect="non-scaling-stroke" style="paint-order: stroke; stroke-width: 0px; fill-rule: nonzero; fill: url(#gradient-6);"/>
    <path d="M 380 51.12 L 370.9 49.12 A 26.787 26.787 0 0 1 367.28 48.122 Q 363.647 46.82 361.55 44.62 A 10.88 10.88 0 0 1 358.668 38.606 A 15.054 15.054 0 0 1 358.5 36.32 A 14.435 14.435 0 0 1 359.052 32.254 A 11.97 11.97 0 0 1 360.85 28.57 A 14.134 14.134 0 0 1 365.003 24.787 A 18.472 18.472 0 0 1 367.5 23.52 A 22.543 22.543 0 0 1 372.741 22.071 A 30.817 30.817 0 0 1 377.5 21.72 A 30.185 30.185 0 0 1 384.605 22.539 A 27.722 27.722 0 0 1 385.85 22.87 Q 389.8 24.02 393 26.52 A 4.271 4.271 0 0 1 393.727 27.154 A 3.123 3.123 0 0 1 394.35 28.17 Q 394.554 28.724 394.554 29.278 A 3.099 3.099 0 0 1 394.45 30.07 Q 394.2 31.02 393.5 31.67 Q 392.8 32.32 391.8 32.42 A 2.527 2.527 0 0 1 391.549 32.433 Q 390.728 32.433 389.841 31.906 A 5.27 5.27 0 0 1 389.7 31.82 A 24.67 24.67 0 0 0 385.72 29.647 A 21.15 21.15 0 0 0 383.6 28.87 Q 380.5 27.92 377.5 27.92 Q 373.969 27.92 371.511 28.795 A 9.258 9.258 0 0 0 369 30.12 A 7.425 7.425 0 0 0 366.98 32.379 Q 366.1 33.937 366.1 35.92 A 7.115 7.115 0 0 0 366.439 38.16 A 5.921 5.921 0 0 0 367.9 40.52 A 7.478 7.478 0 0 0 369.652 41.796 Q 370.531 42.27 371.639 42.63 A 18.117 18.117 0 0 0 373.5 43.12 L 382.6 45.02 A 31.143 31.143 0 0 1 386.516 46.116 Q 390.167 47.421 392.35 49.47 A 10.1 10.1 0 0 1 395.422 55.401 A 14.48 14.48 0 0 1 395.6 57.72 Q 395.6 64.32 390.3 68.22 A 18.811 18.811 0 0 1 383.96 71.19 Q 381.363 71.888 378.297 72.062 A 36.935 36.935 0 0 1 376.2 72.12 Q 371.7 72.12 367.15 71.02 Q 362.6 69.92 358.7 67.22 A 4.537 4.537 0 0 1 357.92 66.537 A 3.447 3.447 0 0 1 357.3 65.57 Q 357.009 64.879 357.009 64.188 A 3.318 3.318 0 0 1 357.05 63.67 Q 357.2 62.72 357.85 62.02 Q 358.5 61.32 359.45 61.17 Q 360.4 61.02 361.6 61.62 A 32.545 32.545 0 0 0 365.379 63.631 A 24.236 24.236 0 0 0 369.15 64.97 Q 372.8 65.92 376.4 65.92 Q 379.908 65.92 382.356 65.124 A 9.459 9.459 0 0 0 385 63.82 Q 387.9 61.72 387.9 58.12 Q 387.9 55.32 386 53.67 Q 384.1 52.02 380 51.12 Z" id="7" vector-effect="non-scaling-stroke" style="paint-order: stroke; stroke-width: 0px; fill-rule: nonzero; fill: url(#gradient-8);"/>
    <path d="M 410.474 88.925 A 4.345 4.345 0 0 0 411.1 88.12 Q 414.8 81.32 417.15 74.22 Q 419.5 67.12 420.65 59.77 Q 421.8 52.42 421.8 44.92 Q 421.8 33.72 419.2 22.82 Q 416.6 11.92 411.1 1.72 A 4.368 4.368 0 0 0 410.615 1.068 A 3.044 3.044 0 0 0 409.05 0.12 A 4.631 4.631 0 0 0 408.864 0.079 Q 407.718 -0.146 406.7 0.27 A 2.826 2.826 0 0 0 405.582 1.094 A 3.68 3.68 0 0 0 405.05 1.97 A 2.731 2.731 0 0 0 404.903 2.4 Q 404.616 3.534 405.2 5.12 A 139.127 139.127 0 0 1 405.522 5.957 A 127.179 127.179 0 0 1 409.55 18.37 Q 411.3 24.92 412.25 31.52 Q 413.2 38.12 413.2 44.92 Q 413.2 51.72 412.3 58.32 Q 411.4 64.92 409.65 71.47 A 105.719 105.719 0 0 1 409.198 73.11 A 115.982 115.982 0 0 1 405.2 84.72 A 8.456 8.456 0 0 0 405.054 85.151 Q 404.726 86.214 404.808 87.038 A 2.724 2.724 0 0 0 405 87.82 A 3.698 3.698 0 0 0 405.008 87.839 A 3.041 3.041 0 0 0 406.7 89.52 A 4.44 4.44 0 0 0 406.911 89.602 Q 408.006 89.994 409.1 89.72 A 2.932 2.932 0 0 0 410.474 88.925 Z" id="8" vector-effect="non-scaling-stroke" style="paint-order: stroke; stroke-width: 0px; fill-rule: nonzero; fill: url(#gradient-7);"/>
    <path d="M 443.3 69.52 L 443.7 71.62 A 7.061 7.061 0 0 1 441.898 71.402 A 5.088 5.088 0 0 1 439.55 70.07 A 5.235 5.235 0 0 1 438.019 66.635 A 7.024 7.024 0 0 1 438 66.12 A 6.503 6.503 0 0 1 438.258 64.246 A 5.172 5.172 0 0 1 439.45 62.17 Q 440.9 60.62 443.3 60.62 Q 445.9 60.62 447.4 62.37 Q 448.614 63.786 448.846 66.216 A 12.693 12.693 0 0 1 448.9 67.42 A 24.231 24.231 0 0 1 448.641 70.897 A 27.642 27.642 0 0 1 448.5 71.77 Q 448.1 74.02 447.1 76.32 A 18.788 18.788 0 0 1 444.839 80.159 A 21.349 21.349 0 0 1 444.4 80.72 A 5.722 5.722 0 0 1 443.782 81.41 Q 443.065 82.081 442.3 82.22 Q 441.2 82.42 440.4 81.82 A 2.077 2.077 0 0 1 439.57 80.355 A 2.936 2.936 0 0 1 439.55 80.12 Q 439.5 79.02 440.5 77.72 Q 442.1 75.62 442.7 73.47 Q 443.3 71.32 443.3 69.52 Z M 441.7 32.976 A 6.317 6.317 0 0 0 443.5 33.22 A 6.846 6.846 0 0 0 444.544 33.143 A 4.776 4.776 0 0 0 447.45 31.62 Q 448.9 30.02 448.9 27.72 A 7.276 7.276 0 0 0 448.772 26.324 A 5.047 5.047 0 0 0 447.45 23.72 Q 446 22.22 443.5 22.22 A 7.16 7.16 0 0 0 442.243 22.326 A 5.02 5.02 0 0 0 439.5 23.72 A 4.924 4.924 0 0 0 438.211 25.986 A 6.763 6.763 0 0 0 438 27.72 A 7.201 7.201 0 0 0 438 27.729 A 5.491 5.491 0 0 0 439.5 31.62 A 4.852 4.852 0 0 0 441.7 32.976 Z" id="9" vector-effect="non-scaling-stroke" style="paint-order: stroke; stroke-width: 0px; fill-rule: nonzero; fill: url(#gradient-9);"/>
  </g>
  <g transform="matrix(6.1875, 0, 0, 6.1875, -138.264132, -23.12509)">
    <path d="M 0.231 8.367 C 0.231 3.19 4.428 -1.007 9.605 -1.007 C 14.782 -1.007 18.978 3.19 18.978 8.367 C 18.978 13.544 14.782 17.74 9.605 17.74 C 4.428 17.74 0.231 13.544 0.231 8.367 Z M 11.899 3.915 C 12.029 3.618 11.894 3.273 11.597 3.143 C 11.301 3.013 10.955 3.149 10.826 3.445 L 6.725 12.819 C 6.595 13.115 6.73 13.461 7.026 13.59 C 7.323 13.72 7.668 13.585 7.798 13.288 L 11.899 3.915 Z M 5.918 5.609 C 5.689 5.38 5.318 5.38 5.089 5.609 L 2.746 7.952 C 2.517 8.181 2.517 8.552 2.746 8.781 L 5.089 11.124 C 5.318 11.353 5.689 11.353 5.918 11.124 C 6.147 10.896 6.147 10.525 5.918 10.296 L 3.989 8.367 L 5.918 6.438 C 6.147 6.209 6.147 5.838 5.918 5.609 Z M 13.291 6.438 L 15.221 8.367 L 13.291 10.296 C 13.063 10.525 13.063 10.896 13.291 11.124 C 13.52 11.353 13.891 11.353 14.12 11.124 L 16.464 8.781 C 16.692 8.552 16.692 8.181 16.464 7.952 L 14.12 5.609 C 13.891 5.38 13.52 5.38 13.291 5.609 C 13.063 5.838 13.063 6.209 13.291 6.438 Z" style="fill: url(#gradient-10);"/>
  </g>
</svg>